<svg xmlns="http://www.w3.org/2000/svg" viewBox="0 0 800 600" role="img"><defs><radialGradient id="bg" cx=".5" cy=".42" r=".75"><stop offset="0" stop-color="#74c0fc" stop-opacity=".30"/><stop offset=".55" stop-color="#0B120D"/><stop offset="1" stop-color="#050805"/></radialGradient><radialGradient id="halo" cx=".5" cy=".5" r=".5"><stop offset="0" stop-color="#74c0fc" stop-opacity=".35"/><stop offset="1" stop-color="#74c0fc" stop-opacity="0"/></radialGradient><filter id="blur"><feGaussianBlur stdDeviation="9"/></filter><linearGradient id="leafshade" x1="0" y1="0" x2="0" y2="1"><stop offset="0" stop-color="#fff" stop-opacity=".35"/><stop offset="1" stop-color="#000" stop-opacity=".35"/></linearGradient><linearGradient id="leafshade" x1="0" y1="0" x2="0" y2="1"><stop offset="0" stop-color="#fff" stop-opacity=".35"/><stop offset="1" stop-color="#000" stop-opacity=".35"/></linearGradient></defs><rect width="800" height="600" fill="url(#bg)"/><circle cx="30" cy="30" r="1.6" fill="#fff" opacity=".07"/><circle cx="30" cy="70" r="1.6" fill="#fff" opacity=".07"/><circle cx="30" cy="110" r="1.6" fill="#fff" opacity=".07"/><circle cx="30" cy="150" r="1.6" fill="#fff" opacity=".07"/><circle cx="30" cy="190" r="1.6" fill="#fff" opacity=".07"/><circle cx="30" cy="230" r="1.6" fill="#fff" opacity=".07"/><circle cx="30" cy="270" r="1.6" fill="#fff" opacity=".07"/><circle cx="30" cy="310" r="1.6" fill="#fff" opacity=".07"/><circle cx="30" cy="350" r="1.6" fill="#fff" opacity=".07"/><circle cx="30" cy="390" r="1.6" fill="#fff" opacity=".07"/><circle cx="30" cy="430" r="1.6" fill="#fff" opacity=".07"/><circle cx="30" cy="470" r="1.6" fill="#fff" opacity=".07"/><circle cx="30" cy="510" r="1.6" fill="#fff" opacity=".07"/><circle cx="30" cy="550" r="1.6" fill="#fff" opacity=".07"/><circle cx="30" cy="590" r="1.6" fill="#fff" opacity=".07"/><circle cx="70" cy="30" r="1.6" fill="#fff" opacity=".07"/><circle cx="70" cy="70" r="1.6" fill="#fff" opacity=".07"/><circle cx="70" cy="110" r="1.6" fill="#fff" opacity=".07"/><circle cx="70" cy="150" r="1.6" fill="#fff" opacity=".07"/><circle cx="70" cy="190" r="1.6" fill="#fff" opacity=".07"/><circle cx="70" cy="230" r="1.6" fill="#fff" opacity=".07"/><circle cx="70" cy="270" r="1.6" fill="#fff" opacity=".07"/><circle cx="70" cy="310" r="1.6" fill="#fff" opacity=".07"/><circle cx="70" cy="350" r="1.6" fill="#fff" opacity=".07"/><circle cx="70" cy="390" r="1.6" fill="#fff" opacity=".07"/><circle cx="70" cy="430" r="1.6" fill="#fff" opacity=".07"/><circle cx="70" cy="470" r="1.6" fill="#fff" opacity=".07"/><circle cx="70" cy="510" r="1.6" fill="#fff" opacity=".07"/><circle cx="70" cy="550" r="1.6" fill="#fff" opacity=".07"/><circle cx="70" cy="590" r="1.6" fill="#fff" opacity=".07"/><circle cx="110" cy="30" r="1.6" fill="#fff" opacity=".07"/><circle cx="110" cy="70" r="1.6" fill="#fff" opacity=".07"/><circle cx="110" cy="110" r="1.6" fill="#fff" opacity=".07"/><circle cx="110" cy="150" r="1.6" fill="#fff" opacity=".07"/><circle cx="110" cy="190" r="1.6" fill="#fff" opacity=".07"/><circle cx="110" cy="230" r="1.6" fill="#fff" opacity=".07"/><circle cx="110" cy="270" r="1.6" fill="#fff" opacity=".07"/><circle cx="110" cy="310" r="1.6" fill="#fff" opacity=".07"/><circle cx="110" cy="350" r="1.6" fill="#fff" opacity=".07"/><circle cx="110" cy="390" r="1.6" fill="#fff" opacity=".07"/><circle cx="110" cy="430" r="1.6" fill="#fff" opacity=".07"/><circle cx="110" cy="470" r="1.6" fill="#fff" opacity=".07"/><circle cx="110" cy="510" r="1.6" fill="#fff" opacity=".07"/><circle cx="110" cy="550" r="1.6" fill="#fff" opacity=".07"/><circle cx="110" cy="590" r="1.6" fill="#fff" opacity=".07"/><circle cx="150" cy="30" r="1.6" fill="#fff" opacity=".07"/><circle cx="150" cy="70" r="1.6" fill="#fff" opacity=".07"/><circle cx="150" cy="110" r="1.6" fill="#fff" opacity=".07"/><circle cx="150" cy="150" r="1.6" fill="#fff" opacity=".07"/><circle cx="150" cy="190" r="1.6" fill="#fff" opacity=".07"/><circle cx="150" cy="230" r="1.6" fill="#fff" opacity=".07"/><circle cx="150" cy="270" r="1.6" fill="#fff" opacity=".07"/><circle cx="150" cy="310" r="1.6" fill="#fff" opacity=".07"/><circle cx="150" cy="350" r="1.6" fill="#fff" opacity=".07"/><circle cx="150" cy="390" r="1.6" fill="#fff" opacity=".07"/><circle cx="150" cy="430" r="1.6" fill="#fff" opacity=".07"/><circle cx="150" cy="470" r="1.6" fill="#fff" opacity=".07"/><circle cx="150" cy="510" r="1.6" fill="#fff" opacity=".07"/><circle cx="150" cy="550" r="1.6" fill="#fff" opacity=".07"/><circle cx="150" cy="590" r="1.6" fill="#fff" opacity=".07"/><circle cx="190" cy="30" r="1.6" fill="#fff" opacity=".07"/><circle cx="190" cy="70" r="1.6" fill="#fff" opacity=".07"/><circle cx="190" cy="110" r="1.6" fill="#fff" opacity=".07"/><circle cx="190" cy="150" r="1.6" fill="#fff" opacity=".07"/><circle cx="190" cy="190" r="1.6" fill="#fff" opacity=".07"/><circle cx="190" cy="230" r="1.6" fill="#fff" opacity=".07"/><circle cx="190" cy="270" r="1.6" fill="#fff" opacity=".07"/><circle cx="190" cy="310" r="1.6" fill="#fff" opacity=".07"/><circle cx="190" cy="350" r="1.6" fill="#fff" opacity=".07"/><circle cx="190" cy="390" r="1.6" fill="#fff" opacity=".07"/><circle cx="190" cy="430" r="1.6" fill="#fff" opacity=".07"/><circle cx="190" cy="470" r="1.6" fill="#fff" opacity=".07"/><circle cx="190" cy="510" r="1.6" fill="#fff" opacity=".07"/><circle cx="190" cy="550" r="1.6" fill="#fff" opacity=".07"/><circle cx="190" cy="590" r="1.6" fill="#fff" opacity=".07"/><circle cx="230" cy="30" r="1.6" fill="#fff" opacity=".07"/><circle cx="230" cy="70" r="1.6" fill="#fff" opacity=".07"/><circle cx="230" cy="110" r="1.6" fill="#fff" opacity=".07"/><circle cx="230" cy="150" r="1.6" fill="#fff" opacity=".07"/><circle cx="230" cy="190" r="1.6" fill="#fff" opacity=".07"/><circle cx="230" cy="230" r="1.6" fill="#fff" opacity=".07"/><circle cx="230" cy="270" r="1.6" fill="#fff" opacity=".07"/><circle cx="230" cy="310" r="1.6" fill="#fff" opacity=".07"/><circle cx="230" cy="350" r="1.6" fill="#fff" opacity=".07"/><circle cx="230" cy="390" r="1.6" fill="#fff" opacity=".07"/><circle cx="230" cy="430" r="1.6" fill="#fff" opacity=".07"/><circle cx="230" cy="470" r="1.6" fill="#fff" opacity=".07"/><circle cx="230" cy="510" r="1.6" fill="#fff" opacity=".07"/><circle cx="230" cy="550" r="1.6" fill="#fff" opacity=".07"/><circle cx="230" cy="590" r="1.6" fill="#fff" opacity=".07"/><circle cx="270" cy="30" r="1.6" fill="#fff" opacity=".07"/><circle cx="270" cy="70" r="1.6" fill="#fff" opacity=".07"/><circle cx="270" cy="110" r="1.6" fill="#fff" opacity=".07"/><circle cx="270" cy="150" r="1.6" fill="#fff" opacity=".07"/><circle cx="270" cy="190" r="1.6" fill="#fff" opacity=".07"/><circle cx="270" cy="230" r="1.6" fill="#fff" opacity=".07"/><circle cx="270" cy="270" r="1.6" fill="#fff" opacity=".07"/><circle cx="270" cy="310" r="1.6" fill="#fff" opacity=".07"/><circle cx="270" cy="350" r="1.6" fill="#fff" opacity=".07"/><circle cx="270" cy="390" r="1.6" fill="#fff" opacity=".07"/><circle cx="270" cy="430" r="1.6" fill="#fff" opacity=".07"/><circle cx="270" cy="470" r="1.6" fill="#fff" opacity=".07"/><circle cx="270" cy="510" r="1.6" fill="#fff" opacity=".07"/><circle cx="270" cy="550" r="1.6" fill="#fff" opacity=".07"/><circle cx="270" cy="590" r="1.6" fill="#fff" opacity=".07"/><circle cx="310" cy="30" r="1.6" fill="#fff" opacity=".07"/><circle cx="310" cy="70" r="1.6" fill="#fff" opacity=".07"/><circle cx="310" cy="110" r="1.6" fill="#fff" opacity=".07"/><circle cx="310" cy="150" r="1.6" fill="#fff" opacity=".07"/><circle cx="310" cy="190" r="1.6" fill="#fff" opacity=".07"/><circle cx="310" cy="230" r="1.6" fill="#fff" opacity=".07"/><circle cx="310" cy="270" r="1.6" fill="#fff" opacity=".07"/><circle cx="310" cy="310" r="1.6" fill="#fff" opacity=".07"/><circle cx="310" cy="350" r="1.6" fill="#fff" opacity=".07"/><circle cx="310" cy="390" r="1.6" fill="#fff" opacity=".07"/><circle cx="310" cy="430" r="1.6" fill="#fff" opacity=".07"/><circle cx="310" cy="470" r="1.6" fill="#fff" opacity=".07"/><circle cx="310" cy="510" r="1.6" fill="#fff" opacity=".07"/><circle cx="310" cy="550" r="1.6" fill="#fff" opacity=".07"/><circle cx="310" cy="590" r="1.6" fill="#fff" opacity=".07"/><circle cx="350" cy="30" r="1.6" fill="#fff" opacity=".07"/><circle cx="350" cy="70" r="1.6" fill="#fff" opacity=".07"/><circle cx="350" cy="110" r="1.6" fill="#fff" opacity=".07"/><circle cx="350" cy="150" r="1.6" fill="#fff" opacity=".07"/><circle cx="350" cy="190" r="1.6" fill="#fff" opacity=".07"/><circle cx="350" cy="230" r="1.6" fill="#fff" opacity=".07"/><circle cx="350" cy="270" r="1.6" fill="#fff" opacity=".07"/><circle cx="350" cy="310" r="1.6" fill="#fff" opacity=".07"/><circle cx="350" cy="350" r="1.6" fill="#fff" opacity=".07"/><circle cx="350" cy="390" r="1.6" fill="#fff" opacity=".07"/><circle cx="350" cy="430" r="1.6" fill="#fff" opacity=".07"/><circle cx="350" cy="470" r="1.6" fill="#fff" opacity=".07"/><circle cx="350" cy="510" r="1.6" fill="#fff" opacity=".07"/><circle cx="350" cy="550" r="1.6" fill="#fff" opacity=".07"/><circle cx="350" cy="590" r="1.6" fill="#fff" opacity=".07"/><circle cx="390" cy="30" r="1.6" fill="#fff" opacity=".07"/><circle cx="390" cy="70" r="1.6" fill="#fff" opacity=".07"/><circle cx="390" cy="110" r="1.6" fill="#fff" opacity=".07"/><circle cx="390" cy="150" r="1.6" fill="#fff" opacity=".07"/><circle cx="390" cy="190" r="1.6" fill="#fff" opacity=".07"/><circle cx="390" cy="230" r="1.6" fill="#fff" opacity=".07"/><circle cx="390" cy="270" r="1.6" fill="#fff" opacity=".07"/><circle cx="390" cy="310" r="1.6" fill="#fff" opacity=".07"/><circle cx="390" cy="350" r="1.6" fill="#fff" opacity=".07"/><circle cx="390" cy="390" r="1.6" fill="#fff" opacity=".07"/><circle cx="390" cy="430" r="1.6" fill="#fff" opacity=".07"/><circle cx="390" cy="470" r="1.6" fill="#fff" opacity=".07"/><circle cx="390" cy="510" r="1.6" fill="#fff" opacity=".07"/><circle cx="390" cy="550" r="1.6" fill="#fff" opacity=".07"/><circle cx="390" cy="590" r="1.6" fill="#fff" opacity=".07"/><circle cx="430" cy="30" r="1.6" fill="#fff" opacity=".07"/><circle cx="430" cy="70" r="1.6" fill="#fff" opacity=".07"/><circle cx="430" cy="110" r="1.6" fill="#fff" opacity=".07"/><circle cx="430" cy="150" r="1.6" fill="#fff" opacity=".07"/><circle cx="430" cy="190" r="1.6" fill="#fff" opacity=".07"/><circle cx="430" cy="230" r="1.6" fill="#fff" opacity=".07"/><circle cx="430" cy="270" r="1.6" fill="#fff" opacity=".07"/><circle cx="430" cy="310" r="1.6" fill="#fff" opacity=".07"/><circle cx="430" cy="350" r="1.6" fill="#fff" opacity=".07"/><circle cx="430" cy="390" r="1.6" fill="#fff" opacity=".07"/><circle cx="430" cy="430" r="1.6" fill="#fff" opacity=".07"/><circle cx="430" cy="470" r="1.6" fill="#fff" opacity=".07"/><circle cx="430" cy="510" r="1.6" fill="#fff" opacity=".07"/><circle cx="430" cy="550" r="1.6" fill="#fff" opacity=".07"/><circle cx="430" cy="590" r="1.6" fill="#fff" opacity=".07"/><circle cx="470" cy="30" r="1.6" fill="#fff" opacity=".07"/><circle cx="470" cy="70" r="1.6" fill="#fff" opacity=".07"/><circle cx="470" cy="110" r="1.6" fill="#fff" opacity=".07"/><circle cx="470" cy="150" r="1.6" fill="#fff" opacity=".07"/><circle cx="470" cy="190" r="1.6" fill="#fff" opacity=".07"/><circle cx="470" cy="230" r="1.6" fill="#fff" opacity=".07"/><circle cx="470" cy="270" r="1.6" fill="#fff" opacity=".07"/><circle cx="470" cy="310" r="1.6" fill="#fff" opacity=".07"/><circle cx="470" cy="350" r="1.6" fill="#fff" opacity=".07"/><circle cx="470" cy="390" r="1.6" fill="#fff" opacity=".07"/><circle cx="470" cy="430" r="1.6" fill="#fff" opacity=".07"/><circle cx="470" cy="470" r="1.6" fill="#fff" opacity=".07"/><circle cx="470" cy="510" r="1.6" fill="#fff" opacity=".07"/><circle cx="470" cy="550" r="1.6" fill="#fff" opacity=".07"/><circle cx="470" cy="590" r="1.6" fill="#fff" opacity=".07"/><circle cx="510" cy="30" r="1.6" fill="#fff" opacity=".07"/><circle cx="510" cy="70" r="1.6" fill="#fff" opacity=".07"/><circle cx="510" cy="110" r="1.6" fill="#fff" opacity=".07"/><circle cx="510" cy="150" r="1.6" fill="#fff" opacity=".07"/><circle cx="510" cy="190" r="1.6" fill="#fff" opacity=".07"/><circle cx="510" cy="230" r="1.6" fill="#fff" opacity=".07"/><circle cx="510" cy="270" r="1.6" fill="#fff" opacity=".07"/><circle cx="510" cy="310" r="1.6" fill="#fff" opacity=".07"/><circle cx="510" cy="350" r="1.6" fill="#fff" opacity=".07"/><circle cx="510" cy="390" r="1.6" fill="#fff" opacity=".07"/><circle cx="510" cy="430" r="1.6" fill="#fff" opacity=".07"/><circle cx="510" cy="470" r="1.6" fill="#fff" opacity=".07"/><circle cx="510" cy="510" r="1.6" fill="#fff" opacity=".07"/><circle cx="510" cy="550" r="1.6" fill="#fff" opacity=".07"/><circle cx="510" cy="590" r="1.6" fill="#fff" opacity=".07"/><circle cx="550" cy="30" r="1.6" fill="#fff" opacity=".07"/><circle cx="550" cy="70" r="1.6" fill="#fff" opacity=".07"/><circle cx="550" cy="110" r="1.6" fill="#fff" opacity=".07"/><circle cx="550" cy="150" r="1.6" fill="#fff" opacity=".07"/><circle cx="550" cy="190" r="1.6" fill="#fff" opacity=".07"/><circle cx="550" cy="230" r="1.6" fill="#fff" opacity=".07"/><circle cx="550" cy="270" r="1.6" fill="#fff" opacity=".07"/><circle cx="550" cy="310" r="1.6" fill="#fff" opacity=".07"/><circle cx="550" cy="350" r="1.6" fill="#fff" opacity=".07"/><circle cx="550" cy="390" r="1.6" fill="#fff" opacity=".07"/><circle cx="550" cy="430" r="1.6" fill="#fff" opacity=".07"/><circle cx="550" cy="470" r="1.6" fill="#fff" opacity=".07"/><circle cx="550" cy="510" r="1.6" fill="#fff" opacity=".07"/><circle cx="550" cy="550" r="1.6" fill="#fff" opacity=".07"/><circle cx="550" cy="590" r="1.6" fill="#fff" opacity=".07"/><circle cx="590" cy="30" r="1.6" fill="#fff" opacity=".07"/><circle cx="590" cy="70" r="1.6" fill="#fff" opacity=".07"/><circle cx="590" cy="110" r="1.6" fill="#fff" opacity=".07"/><circle cx="590" cy="150" r="1.6" fill="#fff" opacity=".07"/><circle cx="590" cy="190" r="1.6" fill="#fff" opacity=".07"/><circle cx="590" cy="230" r="1.6" fill="#fff" opacity=".07"/><circle cx="590" cy="270" r="1.6" fill="#fff" opacity=".07"/><circle cx="590" cy="310" r="1.6" fill="#fff" opacity=".07"/><circle cx="590" cy="350" r="1.6" fill="#fff" opacity=".07"/><circle cx="590" cy="390" r="1.6" fill="#fff" opacity=".07"/><circle cx="590" cy="430" r="1.6" fill="#fff" opacity=".07"/><circle cx="590" cy="470" r="1.6" fill="#fff" opacity=".07"/><circle cx="590" cy="510" r="1.6" fill="#fff" opacity=".07"/><circle cx="590" cy="550" r="1.6" fill="#fff" opacity=".07"/><circle cx="590" cy="590" r="1.6" fill="#fff" opacity=".07"/><circle cx="630" cy="30" r="1.6" fill="#fff" opacity=".07"/><circle cx="630" cy="70" r="1.6" fill="#fff" opacity=".07"/><circle cx="630" cy="110" r="1.6" fill="#fff" opacity=".07"/><circle cx="630" cy="150" r="1.6" fill="#fff" opacity=".07"/><circle cx="630" cy="190" r="1.6" fill="#fff" opacity=".07"/><circle cx="630" cy="230" r="1.6" fill="#fff" opacity=".07"/><circle cx="630" cy="270" r="1.6" fill="#fff" opacity=".07"/><circle cx="630" cy="310" r="1.6" fill="#fff" opacity=".07"/><circle cx="630" cy="350" r="1.6" fill="#fff" opacity=".07"/><circle cx="630" cy="390" r="1.6" fill="#fff" opacity=".07"/><circle cx="630" cy="430" r="1.6" fill="#fff" opacity=".07"/><circle cx="630" cy="470" r="1.6" fill="#fff" opacity=".07"/><circle cx="630" cy="510" r="1.6" fill="#fff" opacity=".07"/><circle cx="630" cy="550" r="1.6" fill="#fff" opacity=".07"/><circle cx="630" cy="590" r="1.6" fill="#fff" opacity=".07"/><circle cx="670" cy="30" r="1.6" fill="#fff" opacity=".07"/><circle cx="670" cy="70" r="1.6" fill="#fff" opacity=".07"/><circle cx="670" cy="110" r="1.6" fill="#fff" opacity=".07"/><circle cx="670" cy="150" r="1.6" fill="#fff" opacity=".07"/><circle cx="670" cy="190" r="1.6" fill="#fff" opacity=".07"/><circle cx="670" cy="230" r="1.6" fill="#fff" opacity=".07"/><circle cx="670" cy="270" r="1.6" fill="#fff" opacity=".07"/><circle cx="670" cy="310" r="1.6" fill="#fff" opacity=".07"/><circle cx="670" cy="350" r="1.6" fill="#fff" opacity=".07"/><circle cx="670" cy="390" r="1.6" fill="#fff" opacity=".07"/><circle cx="670" cy="430" r="1.6" fill="#fff" opacity=".07"/><circle cx="670" cy="470" r="1.6" fill="#fff" opacity=".07"/><circle cx="670" cy="510" r="1.6" fill="#fff" opacity=".07"/><circle cx="670" cy="550" r="1.6" fill="#fff" opacity=".07"/><circle cx="670" cy="590" r="1.6" fill="#fff" opacity=".07"/><circle cx="710" cy="30" r="1.6" fill="#fff" opacity=".07"/><circle cx="710" cy="70" r="1.6" fill="#fff" opacity=".07"/><circle cx="710" cy="110" r="1.6" fill="#fff" opacity=".07"/><circle cx="710" cy="150" r="1.6" fill="#fff" opacity=".07"/><circle cx="710" cy="190" r="1.6" fill="#fff" opacity=".07"/><circle cx="710" cy="230" r="1.6" fill="#fff" opacity=".07"/><circle cx="710" cy="270" r="1.6" fill="#fff" opacity=".07"/><circle cx="710" cy="310" r="1.6" fill="#fff" opacity=".07"/><circle cx="710" cy="350" r="1.6" fill="#fff" opacity=".07"/><circle cx="710" cy="390" r="1.6" fill="#fff" opacity=".07"/><circle cx="710" cy="430" r="1.6" fill="#fff" opacity=".07"/><circle cx="710" cy="470" r="1.6" fill="#fff" opacity=".07"/><circle cx="710" cy="510" r="1.6" fill="#fff" opacity=".07"/><circle cx="710" cy="550" r="1.6" fill="#fff" opacity=".07"/><circle cx="710" cy="590" r="1.6" fill="#fff" opacity=".07"/><circle cx="750" cy="30" r="1.6" fill="#fff" opacity=".07"/><circle cx="750" cy="70" r="1.6" fill="#fff" opacity=".07"/><circle cx="750" cy="110" r="1.6" fill="#fff" opacity=".07"/><circle cx="750" cy="150" r="1.6" fill="#fff" opacity=".07"/><circle cx="750" cy="190" r="1.6" fill="#fff" opacity=".07"/><circle cx="750" cy="230" r="1.6" fill="#fff" opacity=".07"/><circle cx="750" cy="270" r="1.6" fill="#fff" opacity=".07"/><circle cx="750" cy="310" r="1.6" fill="#fff" opacity=".07"/><circle cx="750" cy="350" r="1.6" fill="#fff" opacity=".07"/><circle cx="750" cy="390" r="1.6" fill="#fff" opacity=".07"/><circle cx="750" cy="430" r="1.6" fill="#fff" opacity=".07"/><circle cx="750" cy="470" r="1.6" fill="#fff" opacity=".07"/><circle cx="750" cy="510" r="1.6" fill="#fff" opacity=".07"/><circle cx="750" cy="550" r="1.6" fill="#fff" opacity=".07"/><circle cx="750" cy="590" r="1.6" fill="#fff" opacity=".07"/><circle cx="790" cy="30" r="1.6" fill="#fff" opacity=".07"/><circle cx="790" cy="70" r="1.6" fill="#fff" opacity=".07"/><circle cx="790" cy="110" r="1.6" fill="#fff" opacity=".07"/><circle cx="790" cy="150" r="1.6" fill="#fff" opacity=".07"/><circle cx="790" cy="190" r="1.6" fill="#fff" opacity=".07"/><circle cx="790" cy="230" r="1.6" fill="#fff" opacity=".07"/><circle cx="790" cy="270" r="1.6" fill="#fff" opacity=".07"/><circle cx="790" cy="310" r="1.6" fill="#fff" opacity=".07"/><circle cx="790" cy="350" r="1.6" fill="#fff" opacity=".07"/><circle cx="790" cy="390" r="1.6" fill="#fff" opacity=".07"/><circle cx="790" cy="430" r="1.6" fill="#fff" opacity=".07"/><circle cx="790" cy="470" r="1.6" fill="#fff" opacity=".07"/><circle cx="790" cy="510" r="1.6" fill="#fff" opacity=".07"/><circle cx="790" cy="550" r="1.6" fill="#fff" opacity=".07"/><circle cx="790" cy="590" r="1.6" fill="#fff" opacity=".07"/><circle cx="400" cy="290" r="270" fill="url(#halo)"/><ellipse cx="400" cy="508" rx="250" ry="26" fill="#000" opacity=".5" filter="url(#blur)"/><rect x="90" y="470" width="620" height="60" rx="30" fill="#5f3b1e"/><rect x="90" y="470" width="620" height="14" rx="7" fill="#7a4f2a"/><path d="M90 300C230 280 330 330 450 300C560 272 640 320 710 300" stroke="#1b1f23" stroke-width="22" fill="none" stroke-linecap="round"/><path d="M90 292C230 272 330 322 450 292" stroke="#fff" stroke-opacity=".18" stroke-width="5" fill="none"/><rect x="164" y="311" width="12" height="28" rx="4" fill="#39D353"/><path d="M170 363C156 387 156 403 170 407C184 403 184 387 170 363Z" fill="#74c0fc"/><path d="M170 470V430" stroke="#4ade80" stroke-width="6" stroke-linecap="round"/><g transform="translate(170,440) rotate(-150) scale(0.28)"><path d="M0 0C40-30 110-30 150 0C110 30 40 30 0 0Z" fill="#4ade80"/><path d="M0 0C40-30 110-30 150 0C110 30 40 30 0 0Z" fill="url(#leafshade)" opacity=".5"/><path d="M5 0H140" stroke="#15803d" stroke-width="3" opacity=".7"/></g><g transform="translate(170,440) rotate(-30) scale(0.28)"><path d="M0 0C40-30 110-30 150 0C110 30 40 30 0 0Z" fill="#4ade80"/><path d="M0 0C40-30 110-30 150 0C110 30 40 30 0 0Z" fill="url(#leafshade)" opacity=".5"/><path d="M5 0H140" stroke="#15803d" stroke-width="3" opacity=".7"/></g><rect x="284" y="298" width="12" height="28" rx="4" fill="#39D353"/><path d="M290 350C276 374 276 390 290 394C304 390 304 374 290 350Z" fill="#74c0fc"/><path d="M290 470V430" stroke="#4ade80" stroke-width="6" stroke-linecap="round"/><g transform="translate(290,440) rotate(-150) scale(0.28)"><path d="M0 0C40-30 110-30 150 0C110 30 40 30 0 0Z" fill="#4ade80"/><path d="M0 0C40-30 110-30 150 0C110 30 40 30 0 0Z" fill="url(#leafshade)" opacity=".5"/><path d="M5 0H140" stroke="#15803d" stroke-width="3" opacity=".7"/></g><g transform="translate(290,440) rotate(-30) scale(0.28)"><path d="M0 0C40-30 110-30 150 0C110 30 40 30 0 0Z" fill="#4ade80"/><path d="M0 0C40-30 110-30 150 0C110 30 40 30 0 0Z" fill="url(#leafshade)" opacity=".5"/><path d="M5 0H140" stroke="#15803d" stroke-width="3" opacity=".7"/></g><rect x="404" y="313" width="12" height="28" rx="4" fill="#39D353"/><path d="M410 365C396 389 396 405 410 409C424 405 424 389 410 365Z" fill="#74c0fc"/><path d="M410 470V430" stroke="#4ade80" stroke-width="6" stroke-linecap="round"/><g transform="translate(410,440) rotate(-150) scale(0.28)"><path d="M0 0C40-30 110-30 150 0C110 30 40 30 0 0Z" fill="#4ade80"/><path d="M0 0C40-30 110-30 150 0C110 30 40 30 0 0Z" fill="url(#leafshade)" opacity=".5"/><path d="M5 0H140" stroke="#15803d" stroke-width="3" opacity=".7"/></g><g transform="translate(410,440) rotate(-30) scale(0.28)"><path d="M0 0C40-30 110-30 150 0C110 30 40 30 0 0Z" fill="#4ade80"/><path d="M0 0C40-30 110-30 150 0C110 30 40 30 0 0Z" fill="url(#leafshade)" opacity=".5"/><path d="M5 0H140" stroke="#15803d" stroke-width="3" opacity=".7"/></g><rect x="524" y="314" width="12" height="28" rx="4" fill="#39D353"/><path d="M530 366C516 390 516 406 530 410C544 406 544 390 530 366Z" fill="#74c0fc"/><path d="M530 470V430" stroke="#4ade80" stroke-width="6" stroke-linecap="round"/><g transform="translate(530,440) rotate(-150) scale(0.28)"><path d="M0 0C40-30 110-30 150 0C110 30 40 30 0 0Z" fill="#4ade80"/><path d="M0 0C40-30 110-30 150 0C110 30 40 30 0 0Z" fill="url(#leafshade)" opacity=".5"/><path d="M5 0H140" stroke="#15803d" stroke-width="3" opacity=".7"/></g><g transform="translate(530,440) rotate(-30) scale(0.28)"><path d="M0 0C40-30 110-30 150 0C110 30 40 30 0 0Z" fill="#4ade80"/><path d="M0 0C40-30 110-30 150 0C110 30 40 30 0 0Z" fill="url(#leafshade)" opacity=".5"/><path d="M5 0H140" stroke="#15803d" stroke-width="3" opacity=".7"/></g><rect x="634" y="299" width="12" height="28" rx="4" fill="#39D353"/><path d="M640 351C626 375 626 391 640 395C654 391 654 375 640 351Z" fill="#74c0fc"/><path d="M640 470V430" stroke="#4ade80" stroke-width="6" stroke-linecap="round"/><g transform="translate(640,440) rotate(-150) scale(0.28)"><path d="M0 0C40-30 110-30 150 0C110 30 40 30 0 0Z" fill="#4ade80"/><path d="M0 0C40-30 110-30 150 0C110 30 40 30 0 0Z" fill="url(#leafshade)" opacity=".5"/><path d="M5 0H140" stroke="#15803d" stroke-width="3" opacity=".7"/></g><g transform="translate(640,440) rotate(-30) scale(0.28)"><path d="M0 0C40-30 110-30 150 0C110 30 40 30 0 0Z" fill="#4ade80"/><path d="M0 0C40-30 110-30 150 0C110 30 40 30 0 0Z" fill="url(#leafshade)" opacity=".5"/><path d="M5 0H140" stroke="#15803d" stroke-width="3" opacity=".7"/></g></svg>