<svg xmlns="http://www.w3.org/2000/svg" viewBox="0 0 800 600" role="img"><defs><radialGradient id="bg" cx=".5" cy=".42" r=".75"><stop offset="0" stop-color="#a9744a" stop-opacity=".30"/><stop offset=".55" stop-color="#0B120D"/><stop offset="1" stop-color="#050805"/></radialGradient><radialGradient id="halo" cx=".5" cy=".5" r=".5"><stop offset="0" stop-color="#a9744a" stop-opacity=".35"/><stop offset="1" stop-color="#a9744a" stop-opacity="0"/></radialGradient><filter id="blur"><feGaussianBlur stdDeviation="9"/></filter><linearGradient id="nc" x1="0" y1="0" x2="0" y2="1"><stop offset="0" stop-color="#7a5230"/><stop offset="1" stop-color="#3a2412"/></linearGradient><linearGradient id="leafshade" x1="0" y1="0" x2="0" y2="1"><stop offset="0" stop-color="#fff" stop-opacity=".35"/><stop offset="1" stop-color="#000" stop-opacity=".35"/></linearGradient></defs><rect width="800" height="600" fill="url(#bg)"/><circle cx="30" cy="30" r="1.6" fill="#fff" opacity=".07"/><circle cx="30" cy="70" r="1.6" fill="#fff" opacity=".07"/><circle cx="30" cy="110" r="1.6" fill="#fff" opacity=".07"/><circle cx="30" cy="150" r="1.6" fill="#fff" opacity=".07"/><circle cx="30" cy="190" r="1.6" fill="#fff" opacity=".07"/><circle cx="30" cy="230" r="1.6" fill="#fff" opacity=".07"/><circle cx="30" cy="270" r="1.6" fill="#fff" opacity=".07"/><circle cx="30" cy="310" r="1.6" fill="#fff" opacity=".07"/><circle cx="30" cy="350" r="1.6" fill="#fff" opacity=".07"/><circle cx="30" cy="390" r="1.6" fill="#fff" opacity=".07"/><circle cx="30" cy="430" r="1.6" fill="#fff" opacity=".07"/><circle cx="30" cy="470" r="1.6" fill="#fff" opacity=".07"/><circle cx="30" cy="510" r="1.6" fill="#fff" opacity=".07"/><circle cx="30" cy="550" r="1.6" fill="#fff" opacity=".07"/><circle cx="30" cy="590" r="1.6" fill="#fff" opacity=".07"/><circle cx="70" cy="30" r="1.6" fill="#fff" opacity=".07"/><circle cx="70" cy="70" r="1.6" fill="#fff" opacity=".07"/><circle cx="70" cy="110" r="1.6" fill="#fff" opacity=".07"/><circle cx="70" cy="150" r="1.6" fill="#fff" opacity=".07"/><circle cx="70" cy="190" r="1.6" fill="#fff" opacity=".07"/><circle cx="70" cy="230" r="1.6" fill="#fff" opacity=".07"/><circle cx="70" cy="270" r="1.6" fill="#fff" opacity=".07"/><circle cx="70" cy="310" r="1.6" fill="#fff" opacity=".07"/><circle cx="70" cy="350" r="1.6" fill="#fff" opacity=".07"/><circle cx="70" cy="390" r="1.6" fill="#fff" opacity=".07"/><circle cx="70" cy="430" r="1.6" fill="#fff" opacity=".07"/><circle cx="70" cy="470" r="1.6" fill="#fff" opacity=".07"/><circle cx="70" cy="510" r="1.6" fill="#fff" opacity=".07"/><circle cx="70" cy="550" r="1.6" fill="#fff" opacity=".07"/><circle cx="70" cy="590" r="1.6" fill="#fff" opacity=".07"/><circle cx="110" cy="30" r="1.6" fill="#fff" opacity=".07"/><circle cx="110" cy="70" r="1.6" fill="#fff" opacity=".07"/><circle cx="110" cy="110" r="1.6" fill="#fff" opacity=".07"/><circle cx="110" cy="150" r="1.6" fill="#fff" opacity=".07"/><circle cx="110" cy="190" r="1.6" fill="#fff" opacity=".07"/><circle cx="110" cy="230" r="1.6" fill="#fff" opacity=".07"/><circle cx="110" cy="270" r="1.6" fill="#fff" opacity=".07"/><circle cx="110" cy="310" r="1.6" fill="#fff" opacity=".07"/><circle cx="110" cy="350" r="1.6" fill="#fff" opacity=".07"/><circle cx="110" cy="390" r="1.6" fill="#fff" opacity=".07"/><circle cx="110" cy="430" r="1.6" fill="#fff" opacity=".07"/><circle cx="110" cy="470" r="1.6" fill="#fff" opacity=".07"/><circle cx="110" cy="510" r="1.6" fill="#fff" opacity=".07"/><circle cx="110" cy="550" r="1.6" fill="#fff" opacity=".07"/><circle cx="110" cy="590" r="1.6" fill="#fff" opacity=".07"/><circle cx="150" cy="30" r="1.6" fill="#fff" opacity=".07"/><circle cx="150" cy="70" r="1.6" fill="#fff" opacity=".07"/><circle cx="150" cy="110" r="1.6" fill="#fff" opacity=".07"/><circle cx="150" cy="150" r="1.6" fill="#fff" opacity=".07"/><circle cx="150" cy="190" r="1.6" fill="#fff" opacity=".07"/><circle cx="150" cy="230" r="1.6" fill="#fff" opacity=".07"/><circle cx="150" cy="270" r="1.6" fill="#fff" opacity=".07"/><circle cx="150" cy="310" r="1.6" fill="#fff" opacity=".07"/><circle cx="150" cy="350" r="1.6" fill="#fff" opacity=".07"/><circle cx="150" cy="390" r="1.6" fill="#fff" opacity=".07"/><circle cx="150" cy="430" r="1.6" fill="#fff" opacity=".07"/><circle cx="150" cy="470" r="1.6" fill="#fff" opacity=".07"/><circle cx="150" cy="510" r="1.6" fill="#fff" opacity=".07"/><circle cx="150" cy="550" r="1.6" fill="#fff" opacity=".07"/><circle cx="150" cy="590" r="1.6" fill="#fff" opacity=".07"/><circle cx="190" cy="30" r="1.6" fill="#fff" opacity=".07"/><circle cx="190" cy="70" r="1.6" fill="#fff" opacity=".07"/><circle cx="190" cy="110" r="1.6" fill="#fff" opacity=".07"/><circle cx="190" cy="150" r="1.6" fill="#fff" opacity=".07"/><circle cx="190" cy="190" r="1.6" fill="#fff" opacity=".07"/><circle cx="190" cy="230" r="1.6" fill="#fff" opacity=".07"/><circle cx="190" cy="270" r="1.6" fill="#fff" opacity=".07"/><circle cx="190" cy="310" r="1.6" fill="#fff" opacity=".07"/><circle cx="190" cy="350" r="1.6" fill="#fff" opacity=".07"/><circle cx="190" cy="390" r="1.6" fill="#fff" opacity=".07"/><circle cx="190" cy="430" r="1.6" fill="#fff" opacity=".07"/><circle cx="190" cy="470" r="1.6" fill="#fff" opacity=".07"/><circle cx="190" cy="510" r="1.6" fill="#fff" opacity=".07"/><circle cx="190" cy="550" r="1.6" fill="#fff" opacity=".07"/><circle cx="190" cy="590" r="1.6" fill="#fff" opacity=".07"/><circle cx="230" cy="30" r="1.6" fill="#fff" opacity=".07"/><circle cx="230" cy="70" r="1.6" fill="#fff" opacity=".07"/><circle cx="230" cy="110" r="1.6" fill="#fff" opacity=".07"/><circle cx="230" cy="150" r="1.6" fill="#fff" opacity=".07"/><circle cx="230" cy="190" r="1.6" fill="#fff" opacity=".07"/><circle cx="230" cy="230" r="1.6" fill="#fff" opacity=".07"/><circle cx="230" cy="270" r="1.6" fill="#fff" opacity=".07"/><circle cx="230" cy="310" r="1.6" fill="#fff" opacity=".07"/><circle cx="230" cy="350" r="1.6" fill="#fff" opacity=".07"/><circle cx="230" cy="390" r="1.6" fill="#fff" opacity=".07"/><circle cx="230" cy="430" r="1.6" fill="#fff" opacity=".07"/><circle cx="230" cy="470" r="1.6" fill="#fff" opacity=".07"/><circle cx="230" cy="510" r="1.6" fill="#fff" opacity=".07"/><circle cx="230" cy="550" r="1.6" fill="#fff" opacity=".07"/><circle cx="230" cy="590" r="1.6" fill="#fff" opacity=".07"/><circle cx="270" cy="30" r="1.6" fill="#fff" opacity=".07"/><circle cx="270" cy="70" r="1.6" fill="#fff" opacity=".07"/><circle cx="270" cy="110" r="1.6" fill="#fff" opacity=".07"/><circle cx="270" cy="150" r="1.6" fill="#fff" opacity=".07"/><circle cx="270" cy="190" r="1.6" fill="#fff" opacity=".07"/><circle cx="270" cy="230" r="1.6" fill="#fff" opacity=".07"/><circle cx="270" cy="270" r="1.6" fill="#fff" opacity=".07"/><circle cx="270" cy="310" r="1.6" fill="#fff" opacity=".07"/><circle cx="270" cy="350" r="1.6" fill="#fff" opacity=".07"/><circle cx="270" cy="390" r="1.6" fill="#fff" opacity=".07"/><circle cx="270" cy="430" r="1.6" fill="#fff" opacity=".07"/><circle cx="270" cy="470" r="1.6" fill="#fff" opacity=".07"/><circle cx="270" cy="510" r="1.6" fill="#fff" opacity=".07"/><circle cx="270" cy="550" r="1.6" fill="#fff" opacity=".07"/><circle cx="270" cy="590" r="1.6" fill="#fff" opacity=".07"/><circle cx="310" cy="30" r="1.6" fill="#fff" opacity=".07"/><circle cx="310" cy="70" r="1.6" fill="#fff" opacity=".07"/><circle cx="310" cy="110" r="1.6" fill="#fff" opacity=".07"/><circle cx="310" cy="150" r="1.6" fill="#fff" opacity=".07"/><circle cx="310" cy="190" r="1.6" fill="#fff" opacity=".07"/><circle cx="310" cy="230" r="1.6" fill="#fff" opacity=".07"/><circle cx="310" cy="270" r="1.6" fill="#fff" opacity=".07"/><circle cx="310" cy="310" r="1.6" fill="#fff" opacity=".07"/><circle cx="310" cy="350" r="1.6" fill="#fff" opacity=".07"/><circle cx="310" cy="390" r="1.6" fill="#fff" opacity=".07"/><circle cx="310" cy="430" r="1.6" fill="#fff" opacity=".07"/><circle cx="310" cy="470" r="1.6" fill="#fff" opacity=".07"/><circle cx="310" cy="510" r="1.6" fill="#fff" opacity=".07"/><circle cx="310" cy="550" r="1.6" fill="#fff" opacity=".07"/><circle cx="310" cy="590" r="1.6" fill="#fff" opacity=".07"/><circle cx="350" cy="30" r="1.6" fill="#fff" opacity=".07"/><circle cx="350" cy="70" r="1.6" fill="#fff" opacity=".07"/><circle cx="350" cy="110" r="1.6" fill="#fff" opacity=".07"/><circle cx="350" cy="150" r="1.6" fill="#fff" opacity=".07"/><circle cx="350" cy="190" r="1.6" fill="#fff" opacity=".07"/><circle cx="350" cy="230" r="1.6" fill="#fff" opacity=".07"/><circle cx="350" cy="270" r="1.6" fill="#fff" opacity=".07"/><circle cx="350" cy="310" r="1.6" fill="#fff" opacity=".07"/><circle cx="350" cy="350" r="1.6" fill="#fff" opacity=".07"/><circle cx="350" cy="390" r="1.6" fill="#fff" opacity=".07"/><circle cx="350" cy="430" r="1.6" fill="#fff" opacity=".07"/><circle cx="350" cy="470" r="1.6" fill="#fff" opacity=".07"/><circle cx="350" cy="510" r="1.6" fill="#fff" opacity=".07"/><circle cx="350" cy="550" r="1.6" fill="#fff" opacity=".07"/><circle cx="350" cy="590" r="1.6" fill="#fff" opacity=".07"/><circle cx="390" cy="30" r="1.6" fill="#fff" opacity=".07"/><circle cx="390" cy="70" r="1.6" fill="#fff" opacity=".07"/><circle cx="390" cy="110" r="1.6" fill="#fff" opacity=".07"/><circle cx="390" cy="150" r="1.6" fill="#fff" opacity=".07"/><circle cx="390" cy="190" r="1.6" fill="#fff" opacity=".07"/><circle cx="390" cy="230" r="1.6" fill="#fff" opacity=".07"/><circle cx="390" cy="270" r="1.6" fill="#fff" opacity=".07"/><circle cx="390" cy="310" r="1.6" fill="#fff" opacity=".07"/><circle cx="390" cy="350" r="1.6" fill="#fff" opacity=".07"/><circle cx="390" cy="390" r="1.6" fill="#fff" opacity=".07"/><circle cx="390" cy="430" r="1.6" fill="#fff" opacity=".07"/><circle cx="390" cy="470" r="1.6" fill="#fff" opacity=".07"/><circle cx="390" cy="510" r="1.6" fill="#fff" opacity=".07"/><circle cx="390" cy="550" r="1.6" fill="#fff" opacity=".07"/><circle cx="390" cy="590" r="1.6" fill="#fff" opacity=".07"/><circle cx="430" cy="30" r="1.6" fill="#fff" opacity=".07"/><circle cx="430" cy="70" r="1.6" fill="#fff" opacity=".07"/><circle cx="430" cy="110" r="1.6" fill="#fff" opacity=".07"/><circle cx="430" cy="150" r="1.6" fill="#fff" opacity=".07"/><circle cx="430" cy="190" r="1.6" fill="#fff" opacity=".07"/><circle cx="430" cy="230" r="1.6" fill="#fff" opacity=".07"/><circle cx="430" cy="270" r="1.6" fill="#fff" opacity=".07"/><circle cx="430" cy="310" r="1.6" fill="#fff" opacity=".07"/><circle cx="430" cy="350" r="1.6" fill="#fff" opacity=".07"/><circle cx="430" cy="390" r="1.6" fill="#fff" opacity=".07"/><circle cx="430" cy="430" r="1.6" fill="#fff" opacity=".07"/><circle cx="430" cy="470" r="1.6" fill="#fff" opacity=".07"/><circle cx="430" cy="510" r="1.6" fill="#fff" opacity=".07"/><circle cx="430" cy="550" r="1.6" fill="#fff" opacity=".07"/><circle cx="430" cy="590" r="1.6" fill="#fff" opacity=".07"/><circle cx="470" cy="30" r="1.6" fill="#fff" opacity=".07"/><circle cx="470" cy="70" r="1.6" fill="#fff" opacity=".07"/><circle cx="470" cy="110" r="1.6" fill="#fff" opacity=".07"/><circle cx="470" cy="150" r="1.6" fill="#fff" opacity=".07"/><circle cx="470" cy="190" r="1.6" fill="#fff" opacity=".07"/><circle cx="470" cy="230" r="1.6" fill="#fff" opacity=".07"/><circle cx="470" cy="270" r="1.6" fill="#fff" opacity=".07"/><circle cx="470" cy="310" r="1.6" fill="#fff" opacity=".07"/><circle cx="470" cy="350" r="1.6" fill="#fff" opacity=".07"/><circle cx="470" cy="390" r="1.6" fill="#fff" opacity=".07"/><circle cx="470" cy="430" r="1.6" fill="#fff" opacity=".07"/><circle cx="470" cy="470" r="1.6" fill="#fff" opacity=".07"/><circle cx="470" cy="510" r="1.6" fill="#fff" opacity=".07"/><circle cx="470" cy="550" r="1.6" fill="#fff" opacity=".07"/><circle cx="470" cy="590" r="1.6" fill="#fff" opacity=".07"/><circle cx="510" cy="30" r="1.6" fill="#fff" opacity=".07"/><circle cx="510" cy="70" r="1.6" fill="#fff" opacity=".07"/><circle cx="510" cy="110" r="1.6" fill="#fff" opacity=".07"/><circle cx="510" cy="150" r="1.6" fill="#fff" opacity=".07"/><circle cx="510" cy="190" r="1.6" fill="#fff" opacity=".07"/><circle cx="510" cy="230" r="1.6" fill="#fff" opacity=".07"/><circle cx="510" cy="270" r="1.6" fill="#fff" opacity=".07"/><circle cx="510" cy="310" r="1.6" fill="#fff" opacity=".07"/><circle cx="510" cy="350" r="1.6" fill="#fff" opacity=".07"/><circle cx="510" cy="390" r="1.6" fill="#fff" opacity=".07"/><circle cx="510" cy="430" r="1.6" fill="#fff" opacity=".07"/><circle cx="510" cy="470" r="1.6" fill="#fff" opacity=".07"/><circle cx="510" cy="510" r="1.6" fill="#fff" opacity=".07"/><circle cx="510" cy="550" r="1.6" fill="#fff" opacity=".07"/><circle cx="510" cy="590" r="1.6" fill="#fff" opacity=".07"/><circle cx="550" cy="30" r="1.6" fill="#fff" opacity=".07"/><circle cx="550" cy="70" r="1.6" fill="#fff" opacity=".07"/><circle cx="550" cy="110" r="1.6" fill="#fff" opacity=".07"/><circle cx="550" cy="150" r="1.6" fill="#fff" opacity=".07"/><circle cx="550" cy="190" r="1.6" fill="#fff" opacity=".07"/><circle cx="550" cy="230" r="1.6" fill="#fff" opacity=".07"/><circle cx="550" cy="270" r="1.6" fill="#fff" opacity=".07"/><circle cx="550" cy="310" r="1.6" fill="#fff" opacity=".07"/><circle cx="550" cy="350" r="1.6" fill="#fff" opacity=".07"/><circle cx="550" cy="390" r="1.6" fill="#fff" opacity=".07"/><circle cx="550" cy="430" r="1.6" fill="#fff" opacity=".07"/><circle cx="550" cy="470" r="1.6" fill="#fff" opacity=".07"/><circle cx="550" cy="510" r="1.6" fill="#fff" opacity=".07"/><circle cx="550" cy="550" r="1.6" fill="#fff" opacity=".07"/><circle cx="550" cy="590" r="1.6" fill="#fff" opacity=".07"/><circle cx="590" cy="30" r="1.6" fill="#fff" opacity=".07"/><circle cx="590" cy="70" r="1.6" fill="#fff" opacity=".07"/><circle cx="590" cy="110" r="1.6" fill="#fff" opacity=".07"/><circle cx="590" cy="150" r="1.6" fill="#fff" opacity=".07"/><circle cx="590" cy="190" r="1.6" fill="#fff" opacity=".07"/><circle cx="590" cy="230" r="1.6" fill="#fff" opacity=".07"/><circle cx="590" cy="270" r="1.6" fill="#fff" opacity=".07"/><circle cx="590" cy="310" r="1.6" fill="#fff" opacity=".07"/><circle cx="590" cy="350" r="1.6" fill="#fff" opacity=".07"/><circle cx="590" cy="390" r="1.6" fill="#fff" opacity=".07"/><circle cx="590" cy="430" r="1.6" fill="#fff" opacity=".07"/><circle cx="590" cy="470" r="1.6" fill="#fff" opacity=".07"/><circle cx="590" cy="510" r="1.6" fill="#fff" opacity=".07"/><circle cx="590" cy="550" r="1.6" fill="#fff" opacity=".07"/><circle cx="590" cy="590" r="1.6" fill="#fff" opacity=".07"/><circle cx="630" cy="30" r="1.6" fill="#fff" opacity=".07"/><circle cx="630" cy="70" r="1.6" fill="#fff" opacity=".07"/><circle cx="630" cy="110" r="1.6" fill="#fff" opacity=".07"/><circle cx="630" cy="150" r="1.6" fill="#fff" opacity=".07"/><circle cx="630" cy="190" r="1.6" fill="#fff" opacity=".07"/><circle cx="630" cy="230" r="1.6" fill="#fff" opacity=".07"/><circle cx="630" cy="270" r="1.6" fill="#fff" opacity=".07"/><circle cx="630" cy="310" r="1.6" fill="#fff" opacity=".07"/><circle cx="630" cy="350" r="1.6" fill="#fff" opacity=".07"/><circle cx="630" cy="390" r="1.6" fill="#fff" opacity=".07"/><circle cx="630" cy="430" r="1.6" fill="#fff" opacity=".07"/><circle cx="630" cy="470" r="1.6" fill="#fff" opacity=".07"/><circle cx="630" cy="510" r="1.6" fill="#fff" opacity=".07"/><circle cx="630" cy="550" r="1.6" fill="#fff" opacity=".07"/><circle cx="630" cy="590" r="1.6" fill="#fff" opacity=".07"/><circle cx="670" cy="30" r="1.6" fill="#fff" opacity=".07"/><circle cx="670" cy="70" r="1.6" fill="#fff" opacity=".07"/><circle cx="670" cy="110" r="1.6" fill="#fff" opacity=".07"/><circle cx="670" cy="150" r="1.6" fill="#fff" opacity=".07"/><circle cx="670" cy="190" r="1.6" fill="#fff" opacity=".07"/><circle cx="670" cy="230" r="1.6" fill="#fff" opacity=".07"/><circle cx="670" cy="270" r="1.6" fill="#fff" opacity=".07"/><circle cx="670" cy="310" r="1.6" fill="#fff" opacity=".07"/><circle cx="670" cy="350" r="1.6" fill="#fff" opacity=".07"/><circle cx="670" cy="390" r="1.6" fill="#fff" opacity=".07"/><circle cx="670" cy="430" r="1.6" fill="#fff" opacity=".07"/><circle cx="670" cy="470" r="1.6" fill="#fff" opacity=".07"/><circle cx="670" cy="510" r="1.6" fill="#fff" opacity=".07"/><circle cx="670" cy="550" r="1.6" fill="#fff" opacity=".07"/><circle cx="670" cy="590" r="1.6" fill="#fff" opacity=".07"/><circle cx="710" cy="30" r="1.6" fill="#fff" opacity=".07"/><circle cx="710" cy="70" r="1.6" fill="#fff" opacity=".07"/><circle cx="710" cy="110" r="1.6" fill="#fff" opacity=".07"/><circle cx="710" cy="150" r="1.6" fill="#fff" opacity=".07"/><circle cx="710" cy="190" r="1.6" fill="#fff" opacity=".07"/><circle cx="710" cy="230" r="1.6" fill="#fff" opacity=".07"/><circle cx="710" cy="270" r="1.6" fill="#fff" opacity=".07"/><circle cx="710" cy="310" r="1.6" fill="#fff" opacity=".07"/><circle cx="710" cy="350" r="1.6" fill="#fff" opacity=".07"/><circle cx="710" cy="390" r="1.6" fill="#fff" opacity=".07"/><circle cx="710" cy="430" r="1.6" fill="#fff" opacity=".07"/><circle cx="710" cy="470" r="1.6" fill="#fff" opacity=".07"/><circle cx="710" cy="510" r="1.6" fill="#fff" opacity=".07"/><circle cx="710" cy="550" r="1.6" fill="#fff" opacity=".07"/><circle cx="710" cy="590" r="1.6" fill="#fff" opacity=".07"/><circle cx="750" cy="30" r="1.6" fill="#fff" opacity=".07"/><circle cx="750" cy="70" r="1.6" fill="#fff" opacity=".07"/><circle cx="750" cy="110" r="1.6" fill="#fff" opacity=".07"/><circle cx="750" cy="150" r="1.6" fill="#fff" opacity=".07"/><circle cx="750" cy="190" r="1.6" fill="#fff" opacity=".07"/><circle cx="750" cy="230" r="1.6" fill="#fff" opacity=".07"/><circle cx="750" cy="270" r="1.6" fill="#fff" opacity=".07"/><circle cx="750" cy="310" r="1.6" fill="#fff" opacity=".07"/><circle cx="750" cy="350" r="1.6" fill="#fff" opacity=".07"/><circle cx="750" cy="390" r="1.6" fill="#fff" opacity=".07"/><circle cx="750" cy="430" r="1.6" fill="#fff" opacity=".07"/><circle cx="750" cy="470" r="1.6" fill="#fff" opacity=".07"/><circle cx="750" cy="510" r="1.6" fill="#fff" opacity=".07"/><circle cx="750" cy="550" r="1.6" fill="#fff" opacity=".07"/><circle cx="750" cy="590" r="1.6" fill="#fff" opacity=".07"/><circle cx="790" cy="30" r="1.6" fill="#fff" opacity=".07"/><circle cx="790" cy="70" r="1.6" fill="#fff" opacity=".07"/><circle cx="790" cy="110" r="1.6" fill="#fff" opacity=".07"/><circle cx="790" cy="150" r="1.6" fill="#fff" opacity=".07"/><circle cx="790" cy="190" r="1.6" fill="#fff" opacity=".07"/><circle cx="790" cy="230" r="1.6" fill="#fff" opacity=".07"/><circle cx="790" cy="270" r="1.6" fill="#fff" opacity=".07"/><circle cx="790" cy="310" r="1.6" fill="#fff" opacity=".07"/><circle cx="790" cy="350" r="1.6" fill="#fff" opacity=".07"/><circle cx="790" cy="390" r="1.6" fill="#fff" opacity=".07"/><circle cx="790" cy="430" r="1.6" fill="#fff" opacity=".07"/><circle cx="790" cy="470" r="1.6" fill="#fff" opacity=".07"/><circle cx="790" cy="510" r="1.6" fill="#fff" opacity=".07"/><circle cx="790" cy="550" r="1.6" fill="#fff" opacity=".07"/><circle cx="790" cy="590" r="1.6" fill="#fff" opacity=".07"/><circle cx="400" cy="290" r="270" fill="url(#halo)"/><ellipse cx="400" cy="508" rx="250" ry="26" fill="#000" opacity=".5" filter="url(#blur)"/><g transform="rotate(-4 325.0 430.0)"><rect x="230" y="380" width="190" height="100" rx="14" fill="url(#nc)"/><rect x="230" y="380" width="190" height="14" rx="7" fill="#fff" opacity=".08"/><circle cx="250" cy="410" r="4" fill="#2b190a"/><circle cx="266" cy="432" r="4" fill="#2b190a"/><circle cx="282" cy="454" r="4" fill="#2b190a"/><circle cx="298" cy="410" r="4" fill="#2b190a"/><circle cx="314" cy="432" r="4" fill="#2b190a"/><circle cx="330" cy="454" r="4" fill="#2b190a"/><circle cx="346" cy="410" r="4" fill="#2b190a"/><circle cx="362" cy="432" r="4" fill="#2b190a"/><circle cx="378" cy="454" r="4" fill="#2b190a"/><circle cx="394" cy="410" r="4" fill="#2b190a"/></g><g transform="rotate(3 495.0 422.0)"><rect x="400" y="372" width="190" height="100" rx="14" fill="url(#nc)"/><rect x="400" y="372" width="190" height="14" rx="7" fill="#fff" opacity=".08"/><circle cx="420" cy="402" r="4" fill="#2b190a"/><circle cx="436" cy="424" r="4" fill="#2b190a"/><circle cx="452" cy="446" r="4" fill="#2b190a"/><circle cx="468" cy="402" r="4" fill="#2b190a"/><circle cx="484" cy="424" r="4" fill="#2b190a"/><circle cx="500" cy="446" r="4" fill="#2b190a"/><circle cx="516" cy="402" r="4" fill="#2b190a"/><circle cx="532" cy="424" r="4" fill="#2b190a"/><circle cx="548" cy="446" r="4" fill="#2b190a"/><circle cx="564" cy="402" r="4" fill="#2b190a"/></g><g transform="rotate(-2 415.0 340.0)"><rect x="320" y="290" width="190" height="100" rx="14" fill="url(#nc)"/><rect x="320" y="290" width="190" height="14" rx="7" fill="#fff" opacity=".08"/><circle cx="340" cy="320" r="4" fill="#2b190a"/><circle cx="356" cy="342" r="4" fill="#2b190a"/><circle cx="372" cy="364" r="4" fill="#2b190a"/><circle cx="388" cy="320" r="4" fill="#2b190a"/><circle cx="404" cy="342" r="4" fill="#2b190a"/><circle cx="420" cy="364" r="4" fill="#2b190a"/><circle cx="436" cy="320" r="4" fill="#2b190a"/><circle cx="452" cy="342" r="4" fill="#2b190a"/><circle cx="468" cy="364" r="4" fill="#2b190a"/><circle cx="484" cy="320" r="4" fill="#2b190a"/></g><g transform="rotate(6 605.0 440.0)"><rect x="520" y="395" width="170" height="90" rx="14" fill="url(#nc)"/><rect x="520" y="395" width="170" height="14" rx="7" fill="#fff" opacity=".08"/><circle cx="540" cy="425" r="4" fill="#2b190a"/><circle cx="556" cy="447" r="4" fill="#2b190a"/><circle cx="572" cy="469" r="4" fill="#2b190a"/><circle cx="588" cy="425" r="4" fill="#2b190a"/><circle cx="604" cy="447" r="4" fill="#2b190a"/><circle cx="620" cy="469" r="4" fill="#2b190a"/><circle cx="636" cy="425" r="4" fill="#2b190a"/><circle cx="652" cy="447" r="4" fill="#2b190a"/><circle cx="668" cy="469" r="4" fill="#2b190a"/><circle cx="684" cy="425" r="4" fill="#2b190a"/></g><g transform="translate(170,280) rotate(-50) scale(0.8)"><path d="M0 0C60-10 130-10 200 0" stroke="#4a7c2f" stroke-width="6" fill="none"/><ellipse cx="25" cy="-17" rx="10" ry="22" fill="#5cb85c" transform="rotate(-25 25 -17)"/><ellipse cx="25" cy="17" rx="10" ry="22" fill="#4ca64c" transform="rotate(25 25 17)"/><ellipse cx="51" cy="-17" rx="10" ry="22" fill="#5cb85c" transform="rotate(-25 51 -17)"/><ellipse cx="51" cy="17" rx="10" ry="22" fill="#4ca64c" transform="rotate(25 51 17)"/><ellipse cx="77" cy="-17" rx="10" ry="22" fill="#5cb85c" transform="rotate(-25 77 -17)"/><ellipse cx="77" cy="17" rx="10" ry="22" fill="#4ca64c" transform="rotate(25 77 17)"/><ellipse cx="103" cy="-17" rx="10" ry="22" fill="#5cb85c" transform="rotate(-25 103 -17)"/><ellipse cx="103" cy="17" rx="10" ry="22" fill="#4ca64c" transform="rotate(25 103 17)"/><ellipse cx="129" cy="-17" rx="10" ry="22" fill="#5cb85c" transform="rotate(-25 129 -17)"/><ellipse cx="129" cy="17" rx="10" ry="22" fill="#4ca64c" transform="rotate(25 129 17)"/><ellipse cx="155" cy="-17" rx="10" ry="22" fill="#5cb85c" transform="rotate(-25 155 -17)"/><ellipse cx="155" cy="17" rx="10" ry="22" fill="#4ca64c" transform="rotate(25 155 17)"/><ellipse cx="181" cy="-17" rx="10" ry="22" fill="#5cb85c" transform="rotate(-25 181 -17)"/><ellipse cx="181" cy="17" rx="10" ry="22" fill="#4ca64c" transform="rotate(25 181 17)"/><ellipse cx="205" cy="0" rx="22" ry="10" fill="#5cb85c"/></g></svg>