<svg xmlns="http://www.w3.org/2000/svg" viewBox="0 0 800 600" role="img"><defs><radialGradient id="bg" cx=".5" cy=".42" r=".75"><stop offset="0" stop-color="#e0b36b" stop-opacity=".30"/><stop offset=".55" stop-color="#0B120D"/><stop offset="1" stop-color="#050805"/></radialGradient><radialGradient id="halo" cx=".5" cy=".5" r=".5"><stop offset="0" stop-color="#e0b36b" stop-opacity=".35"/><stop offset="1" stop-color="#e0b36b" stop-opacity="0"/></radialGradient><filter id="blur"><feGaussianBlur stdDeviation="9"/></filter><linearGradient id="leafshade" x1="0" y1="0" x2="0" y2="1"><stop offset="0" stop-color="#fff" stop-opacity=".35"/><stop offset="1" stop-color="#000" stop-opacity=".35"/></linearGradient><radialGradient id="pg" cx=".35" cy=".3" r=".85"><stop offset="0" stop-color="#e9c58a"/><stop offset=".55" stop-color="#c08a4a"/><stop offset="1" stop-color="#7a4f24"/></radialGradient><linearGradient id="leafshade" x1="0" y1="0" x2="0" y2="1"><stop offset="0" stop-color="#fff" stop-opacity=".35"/><stop offset="1" stop-color="#000" stop-opacity=".35"/></linearGradient></defs><rect width="800" height="600" fill="url(#bg)"/><circle cx="30" cy="30" r="1.6" fill="#fff" opacity=".07"/><circle cx="30" cy="70" r="1.6" fill="#fff" opacity=".07"/><circle cx="30" cy="110" r="1.6" fill="#fff" opacity=".07"/><circle cx="30" cy="150" r="1.6" fill="#fff" opacity=".07"/><circle cx="30" cy="190" r="1.6" fill="#fff" opacity=".07"/><circle cx="30" cy="230" r="1.6" fill="#fff" opacity=".07"/><circle cx="30" cy="270" r="1.6" fill="#fff" opacity=".07"/><circle cx="30" cy="310" r="1.6" fill="#fff" opacity=".07"/><circle cx="30" cy="350" r="1.6" fill="#fff" opacity=".07"/><circle cx="30" cy="390" r="1.6" fill="#fff" opacity=".07"/><circle cx="30" cy="430" r="1.6" fill="#fff" opacity=".07"/><circle cx="30" cy="470" r="1.6" fill="#fff" opacity=".07"/><circle cx="30" cy="510" r="1.6" fill="#fff" opacity=".07"/><circle cx="30" cy="550" r="1.6" fill="#fff" opacity=".07"/><circle cx="30" cy="590" r="1.6" fill="#fff" opacity=".07"/><circle cx="70" cy="30" r="1.6" fill="#fff" opacity=".07"/><circle cx="70" cy="70" r="1.6" fill="#fff" opacity=".07"/><circle cx="70" cy="110" r="1.6" fill="#fff" opacity=".07"/><circle cx="70" cy="150" r="1.6" fill="#fff" opacity=".07"/><circle cx="70" cy="190" r="1.6" fill="#fff" opacity=".07"/><circle cx="70" cy="230" r="1.6" fill="#fff" opacity=".07"/><circle cx="70" cy="270" r="1.6" fill="#fff" opacity=".07"/><circle cx="70" cy="310" r="1.6" fill="#fff" opacity=".07"/><circle cx="70" cy="350" r="1.6" fill="#fff" opacity=".07"/><circle cx="70" cy="390" r="1.6" fill="#fff" opacity=".07"/><circle cx="70" cy="430" r="1.6" fill="#fff" opacity=".07"/><circle cx="70" cy="470" r="1.6" fill="#fff" opacity=".07"/><circle cx="70" cy="510" r="1.6" fill="#fff" opacity=".07"/><circle cx="70" cy="550" r="1.6" fill="#fff" opacity=".07"/><circle cx="70" cy="590" r="1.6" fill="#fff" opacity=".07"/><circle cx="110" cy="30" r="1.6" fill="#fff" opacity=".07"/><circle cx="110" cy="70" r="1.6" fill="#fff" opacity=".07"/><circle cx="110" cy="110" r="1.6" fill="#fff" opacity=".07"/><circle cx="110" cy="150" r="1.6" fill="#fff" opacity=".07"/><circle cx="110" cy="190" r="1.6" fill="#fff" opacity=".07"/><circle cx="110" cy="230" r="1.6" fill="#fff" opacity=".07"/><circle cx="110" cy="270" r="1.6" fill="#fff" opacity=".07"/><circle cx="110" cy="310" r="1.6" fill="#fff" opacity=".07"/><circle cx="110" cy="350" r="1.6" fill="#fff" opacity=".07"/><circle cx="110" cy="390" r="1.6" fill="#fff" opacity=".07"/><circle cx="110" cy="430" r="1.6" fill="#fff" opacity=".07"/><circle cx="110" cy="470" r="1.6" fill="#fff" opacity=".07"/><circle cx="110" cy="510" r="1.6" fill="#fff" opacity=".07"/><circle cx="110" cy="550" r="1.6" fill="#fff" opacity=".07"/><circle cx="110" cy="590" r="1.6" fill="#fff" opacity=".07"/><circle cx="150" cy="30" r="1.6" fill="#fff" opacity=".07"/><circle cx="150" cy="70" r="1.6" fill="#fff" opacity=".07"/><circle cx="150" cy="110" r="1.6" fill="#fff" opacity=".07"/><circle cx="150" cy="150" r="1.6" fill="#fff" opacity=".07"/><circle cx="150" cy="190" r="1.6" fill="#fff" opacity=".07"/><circle cx="150" cy="230" r="1.6" fill="#fff" opacity=".07"/><circle cx="150" cy="270" r="1.6" fill="#fff" opacity=".07"/><circle cx="150" cy="310" r="1.6" fill="#fff" opacity=".07"/><circle cx="150" cy="350" r="1.6" fill="#fff" opacity=".07"/><circle cx="150" cy="390" r="1.6" fill="#fff" opacity=".07"/><circle cx="150" cy="430" r="1.6" fill="#fff" opacity=".07"/><circle cx="150" cy="470" r="1.6" fill="#fff" opacity=".07"/><circle cx="150" cy="510" r="1.6" fill="#fff" opacity=".07"/><circle cx="150" cy="550" r="1.6" fill="#fff" opacity=".07"/><circle cx="150" cy="590" r="1.6" fill="#fff" opacity=".07"/><circle cx="190" cy="30" r="1.6" fill="#fff" opacity=".07"/><circle cx="190" cy="70" r="1.6" fill="#fff" opacity=".07"/><circle cx="190" cy="110" r="1.6" fill="#fff" opacity=".07"/><circle cx="190" cy="150" r="1.6" fill="#fff" opacity=".07"/><circle cx="190" cy="190" r="1.6" fill="#fff" opacity=".07"/><circle cx="190" cy="230" r="1.6" fill="#fff" opacity=".07"/><circle cx="190" cy="270" r="1.6" fill="#fff" opacity=".07"/><circle cx="190" cy="310" r="1.6" fill="#fff" opacity=".07"/><circle cx="190" cy="350" r="1.6" fill="#fff" opacity=".07"/><circle cx="190" cy="390" r="1.6" fill="#fff" opacity=".07"/><circle cx="190" cy="430" r="1.6" fill="#fff" opacity=".07"/><circle cx="190" cy="470" r="1.6" fill="#fff" opacity=".07"/><circle cx="190" cy="510" r="1.6" fill="#fff" opacity=".07"/><circle cx="190" cy="550" r="1.6" fill="#fff" opacity=".07"/><circle cx="190" cy="590" r="1.6" fill="#fff" opacity=".07"/><circle cx="230" cy="30" r="1.6" fill="#fff" opacity=".07"/><circle cx="230" cy="70" r="1.6" fill="#fff" opacity=".07"/><circle cx="230" cy="110" r="1.6" fill="#fff" opacity=".07"/><circle cx="230" cy="150" r="1.6" fill="#fff" opacity=".07"/><circle cx="230" cy="190" r="1.6" fill="#fff" opacity=".07"/><circle cx="230" cy="230" r="1.6" fill="#fff" opacity=".07"/><circle cx="230" cy="270" r="1.6" fill="#fff" opacity=".07"/><circle cx="230" cy="310" r="1.6" fill="#fff" opacity=".07"/><circle cx="230" cy="350" r="1.6" fill="#fff" opacity=".07"/><circle cx="230" cy="390" r="1.6" fill="#fff" opacity=".07"/><circle cx="230" cy="430" r="1.6" fill="#fff" opacity=".07"/><circle cx="230" cy="470" r="1.6" fill="#fff" opacity=".07"/><circle cx="230" cy="510" r="1.6" fill="#fff" opacity=".07"/><circle cx="230" cy="550" r="1.6" fill="#fff" opacity=".07"/><circle cx="230" cy="590" r="1.6" fill="#fff" opacity=".07"/><circle cx="270" cy="30" r="1.6" fill="#fff" opacity=".07"/><circle cx="270" cy="70" r="1.6" fill="#fff" opacity=".07"/><circle cx="270" cy="110" r="1.6" fill="#fff" opacity=".07"/><circle cx="270" cy="150" r="1.6" fill="#fff" opacity=".07"/><circle cx="270" cy="190" r="1.6" fill="#fff" opacity=".07"/><circle cx="270" cy="230" r="1.6" fill="#fff" opacity=".07"/><circle cx="270" cy="270" r="1.6" fill="#fff" opacity=".07"/><circle cx="270" cy="310" r="1.6" fill="#fff" opacity=".07"/><circle cx="270" cy="350" r="1.6" fill="#fff" opacity=".07"/><circle cx="270" cy="390" r="1.6" fill="#fff" opacity=".07"/><circle cx="270" cy="430" r="1.6" fill="#fff" opacity=".07"/><circle cx="270" cy="470" r="1.6" fill="#fff" opacity=".07"/><circle cx="270" cy="510" r="1.6" fill="#fff" opacity=".07"/><circle cx="270" cy="550" r="1.6" fill="#fff" opacity=".07"/><circle cx="270" cy="590" r="1.6" fill="#fff" opacity=".07"/><circle cx="310" cy="30" r="1.6" fill="#fff" opacity=".07"/><circle cx="310" cy="70" r="1.6" fill="#fff" opacity=".07"/><circle cx="310" cy="110" r="1.6" fill="#fff" opacity=".07"/><circle cx="310" cy="150" r="1.6" fill="#fff" opacity=".07"/><circle cx="310" cy="190" r="1.6" fill="#fff" opacity=".07"/><circle cx="310" cy="230" r="1.6" fill="#fff" opacity=".07"/><circle cx="310" cy="270" r="1.6" fill="#fff" opacity=".07"/><circle cx="310" cy="310" r="1.6" fill="#fff" opacity=".07"/><circle cx="310" cy="350" r="1.6" fill="#fff" opacity=".07"/><circle cx="310" cy="390" r="1.6" fill="#fff" opacity=".07"/><circle cx="310" cy="430" r="1.6" fill="#fff" opacity=".07"/><circle cx="310" cy="470" r="1.6" fill="#fff" opacity=".07"/><circle cx="310" cy="510" r="1.6" fill="#fff" opacity=".07"/><circle cx="310" cy="550" r="1.6" fill="#fff" opacity=".07"/><circle cx="310" cy="590" r="1.6" fill="#fff" opacity=".07"/><circle cx="350" cy="30" r="1.6" fill="#fff" opacity=".07"/><circle cx="350" cy="70" r="1.6" fill="#fff" opacity=".07"/><circle cx="350" cy="110" r="1.6" fill="#fff" opacity=".07"/><circle cx="350" cy="150" r="1.6" fill="#fff" opacity=".07"/><circle cx="350" cy="190" r="1.6" fill="#fff" opacity=".07"/><circle cx="350" cy="230" r="1.6" fill="#fff" opacity=".07"/><circle cx="350" cy="270" r="1.6" fill="#fff" opacity=".07"/><circle cx="350" cy="310" r="1.6" fill="#fff" opacity=".07"/><circle cx="350" cy="350" r="1.6" fill="#fff" opacity=".07"/><circle cx="350" cy="390" r="1.6" fill="#fff" opacity=".07"/><circle cx="350" cy="430" r="1.6" fill="#fff" opacity=".07"/><circle cx="350" cy="470" r="1.6" fill="#fff" opacity=".07"/><circle cx="350" cy="510" r="1.6" fill="#fff" opacity=".07"/><circle cx="350" cy="550" r="1.6" fill="#fff" opacity=".07"/><circle cx="350" cy="590" r="1.6" fill="#fff" opacity=".07"/><circle cx="390" cy="30" r="1.6" fill="#fff" opacity=".07"/><circle cx="390" cy="70" r="1.6" fill="#fff" opacity=".07"/><circle cx="390" cy="110" r="1.6" fill="#fff" opacity=".07"/><circle cx="390" cy="150" r="1.6" fill="#fff" opacity=".07"/><circle cx="390" cy="190" r="1.6" fill="#fff" opacity=".07"/><circle cx="390" cy="230" r="1.6" fill="#fff" opacity=".07"/><circle cx="390" cy="270" r="1.6" fill="#fff" opacity=".07"/><circle cx="390" cy="310" r="1.6" fill="#fff" opacity=".07"/><circle cx="390" cy="350" r="1.6" fill="#fff" opacity=".07"/><circle cx="390" cy="390" r="1.6" fill="#fff" opacity=".07"/><circle cx="390" cy="430" r="1.6" fill="#fff" opacity=".07"/><circle cx="390" cy="470" r="1.6" fill="#fff" opacity=".07"/><circle cx="390" cy="510" r="1.6" fill="#fff" opacity=".07"/><circle cx="390" cy="550" r="1.6" fill="#fff" opacity=".07"/><circle cx="390" cy="590" r="1.6" fill="#fff" opacity=".07"/><circle cx="430" cy="30" r="1.6" fill="#fff" opacity=".07"/><circle cx="430" cy="70" r="1.6" fill="#fff" opacity=".07"/><circle cx="430" cy="110" r="1.6" fill="#fff" opacity=".07"/><circle cx="430" cy="150" r="1.6" fill="#fff" opacity=".07"/><circle cx="430" cy="190" r="1.6" fill="#fff" opacity=".07"/><circle cx="430" cy="230" r="1.6" fill="#fff" opacity=".07"/><circle cx="430" cy="270" r="1.6" fill="#fff" opacity=".07"/><circle cx="430" cy="310" r="1.6" fill="#fff" opacity=".07"/><circle cx="430" cy="350" r="1.6" fill="#fff" opacity=".07"/><circle cx="430" cy="390" r="1.6" fill="#fff" opacity=".07"/><circle cx="430" cy="430" r="1.6" fill="#fff" opacity=".07"/><circle cx="430" cy="470" r="1.6" fill="#fff" opacity=".07"/><circle cx="430" cy="510" r="1.6" fill="#fff" opacity=".07"/><circle cx="430" cy="550" r="1.6" fill="#fff" opacity=".07"/><circle cx="430" cy="590" r="1.6" fill="#fff" opacity=".07"/><circle cx="470" cy="30" r="1.6" fill="#fff" opacity=".07"/><circle cx="470" cy="70" r="1.6" fill="#fff" opacity=".07"/><circle cx="470" cy="110" r="1.6" fill="#fff" opacity=".07"/><circle cx="470" cy="150" r="1.6" fill="#fff" opacity=".07"/><circle cx="470" cy="190" r="1.6" fill="#fff" opacity=".07"/><circle cx="470" cy="230" r="1.6" fill="#fff" opacity=".07"/><circle cx="470" cy="270" r="1.6" fill="#fff" opacity=".07"/><circle cx="470" cy="310" r="1.6" fill="#fff" opacity=".07"/><circle cx="470" cy="350" r="1.6" fill="#fff" opacity=".07"/><circle cx="470" cy="390" r="1.6" fill="#fff" opacity=".07"/><circle cx="470" cy="430" r="1.6" fill="#fff" opacity=".07"/><circle cx="470" cy="470" r="1.6" fill="#fff" opacity=".07"/><circle cx="470" cy="510" r="1.6" fill="#fff" opacity=".07"/><circle cx="470" cy="550" r="1.6" fill="#fff" opacity=".07"/><circle cx="470" cy="590" r="1.6" fill="#fff" opacity=".07"/><circle cx="510" cy="30" r="1.6" fill="#fff" opacity=".07"/><circle cx="510" cy="70" r="1.6" fill="#fff" opacity=".07"/><circle cx="510" cy="110" r="1.6" fill="#fff" opacity=".07"/><circle cx="510" cy="150" r="1.6" fill="#fff" opacity=".07"/><circle cx="510" cy="190" r="1.6" fill="#fff" opacity=".07"/><circle cx="510" cy="230" r="1.6" fill="#fff" opacity=".07"/><circle cx="510" cy="270" r="1.6" fill="#fff" opacity=".07"/><circle cx="510" cy="310" r="1.6" fill="#fff" opacity=".07"/><circle cx="510" cy="350" r="1.6" fill="#fff" opacity=".07"/><circle cx="510" cy="390" r="1.6" fill="#fff" opacity=".07"/><circle cx="510" cy="430" r="1.6" fill="#fff" opacity=".07"/><circle cx="510" cy="470" r="1.6" fill="#fff" opacity=".07"/><circle cx="510" cy="510" r="1.6" fill="#fff" opacity=".07"/><circle cx="510" cy="550" r="1.6" fill="#fff" opacity=".07"/><circle cx="510" cy="590" r="1.6" fill="#fff" opacity=".07"/><circle cx="550" cy="30" r="1.6" fill="#fff" opacity=".07"/><circle cx="550" cy="70" r="1.6" fill="#fff" opacity=".07"/><circle cx="550" cy="110" r="1.6" fill="#fff" opacity=".07"/><circle cx="550" cy="150" r="1.6" fill="#fff" opacity=".07"/><circle cx="550" cy="190" r="1.6" fill="#fff" opacity=".07"/><circle cx="550" cy="230" r="1.6" fill="#fff" opacity=".07"/><circle cx="550" cy="270" r="1.6" fill="#fff" opacity=".07"/><circle cx="550" cy="310" r="1.6" fill="#fff" opacity=".07"/><circle cx="550" cy="350" r="1.6" fill="#fff" opacity=".07"/><circle cx="550" cy="390" r="1.6" fill="#fff" opacity=".07"/><circle cx="550" cy="430" r="1.6" fill="#fff" opacity=".07"/><circle cx="550" cy="470" r="1.6" fill="#fff" opacity=".07"/><circle cx="550" cy="510" r="1.6" fill="#fff" opacity=".07"/><circle cx="550" cy="550" r="1.6" fill="#fff" opacity=".07"/><circle cx="550" cy="590" r="1.6" fill="#fff" opacity=".07"/><circle cx="590" cy="30" r="1.6" fill="#fff" opacity=".07"/><circle cx="590" cy="70" r="1.6" fill="#fff" opacity=".07"/><circle cx="590" cy="110" r="1.6" fill="#fff" opacity=".07"/><circle cx="590" cy="150" r="1.6" fill="#fff" opacity=".07"/><circle cx="590" cy="190" r="1.6" fill="#fff" opacity=".07"/><circle cx="590" cy="230" r="1.6" fill="#fff" opacity=".07"/><circle cx="590" cy="270" r="1.6" fill="#fff" opacity=".07"/><circle cx="590" cy="310" r="1.6" fill="#fff" opacity=".07"/><circle cx="590" cy="350" r="1.6" fill="#fff" opacity=".07"/><circle cx="590" cy="390" r="1.6" fill="#fff" opacity=".07"/><circle cx="590" cy="430" r="1.6" fill="#fff" opacity=".07"/><circle cx="590" cy="470" r="1.6" fill="#fff" opacity=".07"/><circle cx="590" cy="510" r="1.6" fill="#fff" opacity=".07"/><circle cx="590" cy="550" r="1.6" fill="#fff" opacity=".07"/><circle cx="590" cy="590" r="1.6" fill="#fff" opacity=".07"/><circle cx="630" cy="30" r="1.6" fill="#fff" opacity=".07"/><circle cx="630" cy="70" r="1.6" fill="#fff" opacity=".07"/><circle cx="630" cy="110" r="1.6" fill="#fff" opacity=".07"/><circle cx="630" cy="150" r="1.6" fill="#fff" opacity=".07"/><circle cx="630" cy="190" r="1.6" fill="#fff" opacity=".07"/><circle cx="630" cy="230" r="1.6" fill="#fff" opacity=".07"/><circle cx="630" cy="270" r="1.6" fill="#fff" opacity=".07"/><circle cx="630" cy="310" r="1.6" fill="#fff" opacity=".07"/><circle cx="630" cy="350" r="1.6" fill="#fff" opacity=".07"/><circle cx="630" cy="390" r="1.6" fill="#fff" opacity=".07"/><circle cx="630" cy="430" r="1.6" fill="#fff" opacity=".07"/><circle cx="630" cy="470" r="1.6" fill="#fff" opacity=".07"/><circle cx="630" cy="510" r="1.6" fill="#fff" opacity=".07"/><circle cx="630" cy="550" r="1.6" fill="#fff" opacity=".07"/><circle cx="630" cy="590" r="1.6" fill="#fff" opacity=".07"/><circle cx="670" cy="30" r="1.6" fill="#fff" opacity=".07"/><circle cx="670" cy="70" r="1.6" fill="#fff" opacity=".07"/><circle cx="670" cy="110" r="1.6" fill="#fff" opacity=".07"/><circle cx="670" cy="150" r="1.6" fill="#fff" opacity=".07"/><circle cx="670" cy="190" r="1.6" fill="#fff" opacity=".07"/><circle cx="670" cy="230" r="1.6" fill="#fff" opacity=".07"/><circle cx="670" cy="270" r="1.6" fill="#fff" opacity=".07"/><circle cx="670" cy="310" r="1.6" fill="#fff" opacity=".07"/><circle cx="670" cy="350" r="1.6" fill="#fff" opacity=".07"/><circle cx="670" cy="390" r="1.6" fill="#fff" opacity=".07"/><circle cx="670" cy="430" r="1.6" fill="#fff" opacity=".07"/><circle cx="670" cy="470" r="1.6" fill="#fff" opacity=".07"/><circle cx="670" cy="510" r="1.6" fill="#fff" opacity=".07"/><circle cx="670" cy="550" r="1.6" fill="#fff" opacity=".07"/><circle cx="670" cy="590" r="1.6" fill="#fff" opacity=".07"/><circle cx="710" cy="30" r="1.6" fill="#fff" opacity=".07"/><circle cx="710" cy="70" r="1.6" fill="#fff" opacity=".07"/><circle cx="710" cy="110" r="1.6" fill="#fff" opacity=".07"/><circle cx="710" cy="150" r="1.6" fill="#fff" opacity=".07"/><circle cx="710" cy="190" r="1.6" fill="#fff" opacity=".07"/><circle cx="710" cy="230" r="1.6" fill="#fff" opacity=".07"/><circle cx="710" cy="270" r="1.6" fill="#fff" opacity=".07"/><circle cx="710" cy="310" r="1.6" fill="#fff" opacity=".07"/><circle cx="710" cy="350" r="1.6" fill="#fff" opacity=".07"/><circle cx="710" cy="390" r="1.6" fill="#fff" opacity=".07"/><circle cx="710" cy="430" r="1.6" fill="#fff" opacity=".07"/><circle cx="710" cy="470" r="1.6" fill="#fff" opacity=".07"/><circle cx="710" cy="510" r="1.6" fill="#fff" opacity=".07"/><circle cx="710" cy="550" r="1.6" fill="#fff" opacity=".07"/><circle cx="710" cy="590" r="1.6" fill="#fff" opacity=".07"/><circle cx="750" cy="30" r="1.6" fill="#fff" opacity=".07"/><circle cx="750" cy="70" r="1.6" fill="#fff" opacity=".07"/><circle cx="750" cy="110" r="1.6" fill="#fff" opacity=".07"/><circle cx="750" cy="150" r="1.6" fill="#fff" opacity=".07"/><circle cx="750" cy="190" r="1.6" fill="#fff" opacity=".07"/><circle cx="750" cy="230" r="1.6" fill="#fff" opacity=".07"/><circle cx="750" cy="270" r="1.6" fill="#fff" opacity=".07"/><circle cx="750" cy="310" r="1.6" fill="#fff" opacity=".07"/><circle cx="750" cy="350" r="1.6" fill="#fff" opacity=".07"/><circle cx="750" cy="390" r="1.6" fill="#fff" opacity=".07"/><circle cx="750" cy="430" r="1.6" fill="#fff" opacity=".07"/><circle cx="750" cy="470" r="1.6" fill="#fff" opacity=".07"/><circle cx="750" cy="510" r="1.6" fill="#fff" opacity=".07"/><circle cx="750" cy="550" r="1.6" fill="#fff" opacity=".07"/><circle cx="750" cy="590" r="1.6" fill="#fff" opacity=".07"/><circle cx="790" cy="30" r="1.6" fill="#fff" opacity=".07"/><circle cx="790" cy="70" r="1.6" fill="#fff" opacity=".07"/><circle cx="790" cy="110" r="1.6" fill="#fff" opacity=".07"/><circle cx="790" cy="150" r="1.6" fill="#fff" opacity=".07"/><circle cx="790" cy="190" r="1.6" fill="#fff" opacity=".07"/><circle cx="790" cy="230" r="1.6" fill="#fff" opacity=".07"/><circle cx="790" cy="270" r="1.6" fill="#fff" opacity=".07"/><circle cx="790" cy="310" r="1.6" fill="#fff" opacity=".07"/><circle cx="790" cy="350" r="1.6" fill="#fff" opacity=".07"/><circle cx="790" cy="390" r="1.6" fill="#fff" opacity=".07"/><circle cx="790" cy="430" r="1.6" fill="#fff" opacity=".07"/><circle cx="790" cy="470" r="1.6" fill="#fff" opacity=".07"/><circle cx="790" cy="510" r="1.6" fill="#fff" opacity=".07"/><circle cx="790" cy="550" r="1.6" fill="#fff" opacity=".07"/><circle cx="790" cy="590" r="1.6" fill="#fff" opacity=".07"/><circle cx="400" cy="290" r="270" fill="url(#halo)"/><ellipse cx="400" cy="508" rx="250" ry="26" fill="#000" opacity=".5" filter="url(#blur)"/><g transform="translate(400,360) rotate(-8)"><ellipse rx="150" ry="105" fill="url(#pg)" transform="scale(1)"/><ellipse cx="-45.0" cy="-42.0" rx="42.00000000000001" ry="13.65" fill="#fff" opacity=".25"/><ellipse cx="-60.0" cy="10.5" rx="6" ry="4" fill="#5b3a1a" opacity=".8"/><ellipse cx="30.0" cy="-31.5" rx="6" ry="4" fill="#5b3a1a" opacity=".8"/><ellipse cx="67.5" cy="26.25" rx="6" ry="4" fill="#5b3a1a" opacity=".8"/><ellipse cx="0" cy="36.75" rx="6" ry="4" fill="#5b3a1a" opacity=".8"/></g><g transform="translate(270,410) rotate(18)"><ellipse rx="100" ry="72" fill="url(#pg)" transform="scale(1)"/><ellipse cx="-30.0" cy="-28.8" rx="28.000000000000004" ry="9.36" fill="#fff" opacity=".25"/><ellipse cx="-40.0" cy="7.2" rx="6" ry="4" fill="#5b3a1a" opacity=".8"/><ellipse cx="20.0" cy="-21.599999999999998" rx="6" ry="4" fill="#5b3a1a" opacity=".8"/><ellipse cx="45.0" cy="18.0" rx="6" ry="4" fill="#5b3a1a" opacity=".8"/><ellipse cx="0" cy="25.2" rx="6" ry="4" fill="#5b3a1a" opacity=".8"/></g><g transform="translate(545,410) rotate(-20)"><ellipse rx="105" ry="76" fill="url(#pg)" transform="scale(1)"/><ellipse cx="-31.5" cy="-30.400000000000002" rx="29.400000000000002" ry="9.88" fill="#fff" opacity=".25"/><ellipse cx="-42.0" cy="7.6000000000000005" rx="6" ry="4" fill="#5b3a1a" opacity=".8"/><ellipse cx="21.0" cy="-22.8" rx="6" ry="4" fill="#5b3a1a" opacity=".8"/><ellipse cx="47.25" cy="19.0" rx="6" ry="4" fill="#5b3a1a" opacity=".8"/><ellipse cx="0" cy="26.599999999999998" rx="6" ry="4" fill="#5b3a1a" opacity=".8"/></g><g transform="translate(380,250) rotate(25)"><ellipse rx="92" ry="66" fill="url(#pg)" transform="scale(1)"/><ellipse cx="-27.599999999999998" cy="-26.400000000000002" rx="25.76" ry="8.58" fill="#fff" opacity=".25"/><ellipse cx="-36.800000000000004" cy="6.6000000000000005" rx="6" ry="4" fill="#5b3a1a" opacity=".8"/><ellipse cx="18.400000000000002" cy="-19.8" rx="6" ry="4" fill="#5b3a1a" opacity=".8"/><ellipse cx="41.4" cy="16.5" rx="6" ry="4" fill="#5b3a1a" opacity=".8"/><ellipse cx="0" cy="23.099999999999998" rx="6" ry="4" fill="#5b3a1a" opacity=".8"/></g><g transform="translate(390,205) rotate(-120) scale(0.9)"><path d="M0 0C40-30 110-30 150 0C110 30 40 30 0 0Z" fill="#4ade80"/><path d="M0 0C40-30 110-30 150 0C110 30 40 30 0 0Z" fill="url(#leafshade)" opacity=".5"/><path d="M5 0H140" stroke="#15803d" stroke-width="3" opacity=".7"/></g><g transform="translate(400,210) rotate(-40) scale(0.9)"><path d="M0 0C40-30 110-30 150 0C110 30 40 30 0 0Z" fill="#4ade80"/><path d="M0 0C40-30 110-30 150 0C110 30 40 30 0 0Z" fill="url(#leafshade)" opacity=".5"/><path d="M5 0H140" stroke="#15803d" stroke-width="3" opacity=".7"/></g></svg>