<svg xmlns="http://www.w3.org/2000/svg" viewBox="0 0 800 600" role="img"><defs><radialGradient id="bg" cx=".5" cy=".42" r=".75"><stop offset="0" stop-color="#f6c344" stop-opacity=".30"/><stop offset=".55" stop-color="#0B120D"/><stop offset="1" stop-color="#050805"/></radialGradient><radialGradient id="halo" cx=".5" cy=".5" r=".5"><stop offset="0" stop-color="#f6c344" stop-opacity=".35"/><stop offset="1" stop-color="#f6c344" stop-opacity="0"/></radialGradient><filter id="blur"><feGaussianBlur stdDeviation="9"/></filter><linearGradient id="gr" x1="0" y1="0" x2="1" y2="0"><stop offset="0" stop-color="#f6d365"/><stop offset="1" stop-color="#d99a1d"/></linearGradient><linearGradient id="leafshade" x1="0" y1="0" x2="0" y2="1"><stop offset="0" stop-color="#fff" stop-opacity=".35"/><stop offset="1" stop-color="#000" stop-opacity=".35"/></linearGradient><linearGradient id="leafshade" x1="0" y1="0" x2="0" y2="1"><stop offset="0" stop-color="#fff" stop-opacity=".35"/><stop offset="1" stop-color="#000" stop-opacity=".35"/></linearGradient></defs><rect width="800" height="600" fill="url(#bg)"/><circle cx="30" cy="30" r="1.6" fill="#fff" opacity=".07"/><circle cx="30" cy="70" r="1.6" fill="#fff" opacity=".07"/><circle cx="30" cy="110" r="1.6" fill="#fff" opacity=".07"/><circle cx="30" cy="150" r="1.6" fill="#fff" opacity=".07"/><circle cx="30" cy="190" r="1.6" fill="#fff" opacity=".07"/><circle cx="30" cy="230" r="1.6" fill="#fff" opacity=".07"/><circle cx="30" cy="270" r="1.6" fill="#fff" opacity=".07"/><circle cx="30" cy="310" r="1.6" fill="#fff" opacity=".07"/><circle cx="30" cy="350" r="1.6" fill="#fff" opacity=".07"/><circle cx="30" cy="390" r="1.6" fill="#fff" opacity=".07"/><circle cx="30" cy="430" r="1.6" fill="#fff" opacity=".07"/><circle cx="30" cy="470" r="1.6" fill="#fff" opacity=".07"/><circle cx="30" cy="510" r="1.6" fill="#fff" opacity=".07"/><circle cx="30" cy="550" r="1.6" fill="#fff" opacity=".07"/><circle cx="30" cy="590" r="1.6" fill="#fff" opacity=".07"/><circle cx="70" cy="30" r="1.6" fill="#fff" opacity=".07"/><circle cx="70" cy="70" r="1.6" fill="#fff" opacity=".07"/><circle cx="70" cy="110" r="1.6" fill="#fff" opacity=".07"/><circle cx="70" cy="150" r="1.6" fill="#fff" opacity=".07"/><circle cx="70" cy="190" r="1.6" fill="#fff" opacity=".07"/><circle cx="70" cy="230" r="1.6" fill="#fff" opacity=".07"/><circle cx="70" cy="270" r="1.6" fill="#fff" opacity=".07"/><circle cx="70" cy="310" r="1.6" fill="#fff" opacity=".07"/><circle cx="70" cy="350" r="1.6" fill="#fff" opacity=".07"/><circle cx="70" cy="390" r="1.6" fill="#fff" opacity=".07"/><circle cx="70" cy="430" r="1.6" fill="#fff" opacity=".07"/><circle cx="70" cy="470" r="1.6" fill="#fff" opacity=".07"/><circle cx="70" cy="510" r="1.6" fill="#fff" opacity=".07"/><circle cx="70" cy="550" r="1.6" fill="#fff" opacity=".07"/><circle cx="70" cy="590" r="1.6" fill="#fff" opacity=".07"/><circle cx="110" cy="30" r="1.6" fill="#fff" opacity=".07"/><circle cx="110" cy="70" r="1.6" fill="#fff" opacity=".07"/><circle cx="110" cy="110" r="1.6" fill="#fff" opacity=".07"/><circle cx="110" cy="150" r="1.6" fill="#fff" opacity=".07"/><circle cx="110" cy="190" r="1.6" fill="#fff" opacity=".07"/><circle cx="110" cy="230" r="1.6" fill="#fff" opacity=".07"/><circle cx="110" cy="270" r="1.6" fill="#fff" opacity=".07"/><circle cx="110" cy="310" r="1.6" fill="#fff" opacity=".07"/><circle cx="110" cy="350" r="1.6" fill="#fff" opacity=".07"/><circle cx="110" cy="390" r="1.6" fill="#fff" opacity=".07"/><circle cx="110" cy="430" r="1.6" fill="#fff" opacity=".07"/><circle cx="110" cy="470" r="1.6" fill="#fff" opacity=".07"/><circle cx="110" cy="510" r="1.6" fill="#fff" opacity=".07"/><circle cx="110" cy="550" r="1.6" fill="#fff" opacity=".07"/><circle cx="110" cy="590" r="1.6" fill="#fff" opacity=".07"/><circle cx="150" cy="30" r="1.6" fill="#fff" opacity=".07"/><circle cx="150" cy="70" r="1.6" fill="#fff" opacity=".07"/><circle cx="150" cy="110" r="1.6" fill="#fff" opacity=".07"/><circle cx="150" cy="150" r="1.6" fill="#fff" opacity=".07"/><circle cx="150" cy="190" r="1.6" fill="#fff" opacity=".07"/><circle cx="150" cy="230" r="1.6" fill="#fff" opacity=".07"/><circle cx="150" cy="270" r="1.6" fill="#fff" opacity=".07"/><circle cx="150" cy="310" r="1.6" fill="#fff" opacity=".07"/><circle cx="150" cy="350" r="1.6" fill="#fff" opacity=".07"/><circle cx="150" cy="390" r="1.6" fill="#fff" opacity=".07"/><circle cx="150" cy="430" r="1.6" fill="#fff" opacity=".07"/><circle cx="150" cy="470" r="1.6" fill="#fff" opacity=".07"/><circle cx="150" cy="510" r="1.6" fill="#fff" opacity=".07"/><circle cx="150" cy="550" r="1.6" fill="#fff" opacity=".07"/><circle cx="150" cy="590" r="1.6" fill="#fff" opacity=".07"/><circle cx="190" cy="30" r="1.6" fill="#fff" opacity=".07"/><circle cx="190" cy="70" r="1.6" fill="#fff" opacity=".07"/><circle cx="190" cy="110" r="1.6" fill="#fff" opacity=".07"/><circle cx="190" cy="150" r="1.6" fill="#fff" opacity=".07"/><circle cx="190" cy="190" r="1.6" fill="#fff" opacity=".07"/><circle cx="190" cy="230" r="1.6" fill="#fff" opacity=".07"/><circle cx="190" cy="270" r="1.6" fill="#fff" opacity=".07"/><circle cx="190" cy="310" r="1.6" fill="#fff" opacity=".07"/><circle cx="190" cy="350" r="1.6" fill="#fff" opacity=".07"/><circle cx="190" cy="390" r="1.6" fill="#fff" opacity=".07"/><circle cx="190" cy="430" r="1.6" fill="#fff" opacity=".07"/><circle cx="190" cy="470" r="1.6" fill="#fff" opacity=".07"/><circle cx="190" cy="510" r="1.6" fill="#fff" opacity=".07"/><circle cx="190" cy="550" r="1.6" fill="#fff" opacity=".07"/><circle cx="190" cy="590" r="1.6" fill="#fff" opacity=".07"/><circle cx="230" cy="30" r="1.6" fill="#fff" opacity=".07"/><circle cx="230" cy="70" r="1.6" fill="#fff" opacity=".07"/><circle cx="230" cy="110" r="1.6" fill="#fff" opacity=".07"/><circle cx="230" cy="150" r="1.6" fill="#fff" opacity=".07"/><circle cx="230" cy="190" r="1.6" fill="#fff" opacity=".07"/><circle cx="230" cy="230" r="1.6" fill="#fff" opacity=".07"/><circle cx="230" cy="270" r="1.6" fill="#fff" opacity=".07"/><circle cx="230" cy="310" r="1.6" fill="#fff" opacity=".07"/><circle cx="230" cy="350" r="1.6" fill="#fff" opacity=".07"/><circle cx="230" cy="390" r="1.6" fill="#fff" opacity=".07"/><circle cx="230" cy="430" r="1.6" fill="#fff" opacity=".07"/><circle cx="230" cy="470" r="1.6" fill="#fff" opacity=".07"/><circle cx="230" cy="510" r="1.6" fill="#fff" opacity=".07"/><circle cx="230" cy="550" r="1.6" fill="#fff" opacity=".07"/><circle cx="230" cy="590" r="1.6" fill="#fff" opacity=".07"/><circle cx="270" cy="30" r="1.6" fill="#fff" opacity=".07"/><circle cx="270" cy="70" r="1.6" fill="#fff" opacity=".07"/><circle cx="270" cy="110" r="1.6" fill="#fff" opacity=".07"/><circle cx="270" cy="150" r="1.6" fill="#fff" opacity=".07"/><circle cx="270" cy="190" r="1.6" fill="#fff" opacity=".07"/><circle cx="270" cy="230" r="1.6" fill="#fff" opacity=".07"/><circle cx="270" cy="270" r="1.6" fill="#fff" opacity=".07"/><circle cx="270" cy="310" r="1.6" fill="#fff" opacity=".07"/><circle cx="270" cy="350" r="1.6" fill="#fff" opacity=".07"/><circle cx="270" cy="390" r="1.6" fill="#fff" opacity=".07"/><circle cx="270" cy="430" r="1.6" fill="#fff" opacity=".07"/><circle cx="270" cy="470" r="1.6" fill="#fff" opacity=".07"/><circle cx="270" cy="510" r="1.6" fill="#fff" opacity=".07"/><circle cx="270" cy="550" r="1.6" fill="#fff" opacity=".07"/><circle cx="270" cy="590" r="1.6" fill="#fff" opacity=".07"/><circle cx="310" cy="30" r="1.6" fill="#fff" opacity=".07"/><circle cx="310" cy="70" r="1.6" fill="#fff" opacity=".07"/><circle cx="310" cy="110" r="1.6" fill="#fff" opacity=".07"/><circle cx="310" cy="150" r="1.6" fill="#fff" opacity=".07"/><circle cx="310" cy="190" r="1.6" fill="#fff" opacity=".07"/><circle cx="310" cy="230" r="1.6" fill="#fff" opacity=".07"/><circle cx="310" cy="270" r="1.6" fill="#fff" opacity=".07"/><circle cx="310" cy="310" r="1.6" fill="#fff" opacity=".07"/><circle cx="310" cy="350" r="1.6" fill="#fff" opacity=".07"/><circle cx="310" cy="390" r="1.6" fill="#fff" opacity=".07"/><circle cx="310" cy="430" r="1.6" fill="#fff" opacity=".07"/><circle cx="310" cy="470" r="1.6" fill="#fff" opacity=".07"/><circle cx="310" cy="510" r="1.6" fill="#fff" opacity=".07"/><circle cx="310" cy="550" r="1.6" fill="#fff" opacity=".07"/><circle cx="310" cy="590" r="1.6" fill="#fff" opacity=".07"/><circle cx="350" cy="30" r="1.6" fill="#fff" opacity=".07"/><circle cx="350" cy="70" r="1.6" fill="#fff" opacity=".07"/><circle cx="350" cy="110" r="1.6" fill="#fff" opacity=".07"/><circle cx="350" cy="150" r="1.6" fill="#fff" opacity=".07"/><circle cx="350" cy="190" r="1.6" fill="#fff" opacity=".07"/><circle cx="350" cy="230" r="1.6" fill="#fff" opacity=".07"/><circle cx="350" cy="270" r="1.6" fill="#fff" opacity=".07"/><circle cx="350" cy="310" r="1.6" fill="#fff" opacity=".07"/><circle cx="350" cy="350" r="1.6" fill="#fff" opacity=".07"/><circle cx="350" cy="390" r="1.6" fill="#fff" opacity=".07"/><circle cx="350" cy="430" r="1.6" fill="#fff" opacity=".07"/><circle cx="350" cy="470" r="1.6" fill="#fff" opacity=".07"/><circle cx="350" cy="510" r="1.6" fill="#fff" opacity=".07"/><circle cx="350" cy="550" r="1.6" fill="#fff" opacity=".07"/><circle cx="350" cy="590" r="1.6" fill="#fff" opacity=".07"/><circle cx="390" cy="30" r="1.6" fill="#fff" opacity=".07"/><circle cx="390" cy="70" r="1.6" fill="#fff" opacity=".07"/><circle cx="390" cy="110" r="1.6" fill="#fff" opacity=".07"/><circle cx="390" cy="150" r="1.6" fill="#fff" opacity=".07"/><circle cx="390" cy="190" r="1.6" fill="#fff" opacity=".07"/><circle cx="390" cy="230" r="1.6" fill="#fff" opacity=".07"/><circle cx="390" cy="270" r="1.6" fill="#fff" opacity=".07"/><circle cx="390" cy="310" r="1.6" fill="#fff" opacity=".07"/><circle cx="390" cy="350" r="1.6" fill="#fff" opacity=".07"/><circle cx="390" cy="390" r="1.6" fill="#fff" opacity=".07"/><circle cx="390" cy="430" r="1.6" fill="#fff" opacity=".07"/><circle cx="390" cy="470" r="1.6" fill="#fff" opacity=".07"/><circle cx="390" cy="510" r="1.6" fill="#fff" opacity=".07"/><circle cx="390" cy="550" r="1.6" fill="#fff" opacity=".07"/><circle cx="390" cy="590" r="1.6" fill="#fff" opacity=".07"/><circle cx="430" cy="30" r="1.6" fill="#fff" opacity=".07"/><circle cx="430" cy="70" r="1.6" fill="#fff" opacity=".07"/><circle cx="430" cy="110" r="1.6" fill="#fff" opacity=".07"/><circle cx="430" cy="150" r="1.6" fill="#fff" opacity=".07"/><circle cx="430" cy="190" r="1.6" fill="#fff" opacity=".07"/><circle cx="430" cy="230" r="1.6" fill="#fff" opacity=".07"/><circle cx="430" cy="270" r="1.6" fill="#fff" opacity=".07"/><circle cx="430" cy="310" r="1.6" fill="#fff" opacity=".07"/><circle cx="430" cy="350" r="1.6" fill="#fff" opacity=".07"/><circle cx="430" cy="390" r="1.6" fill="#fff" opacity=".07"/><circle cx="430" cy="430" r="1.6" fill="#fff" opacity=".07"/><circle cx="430" cy="470" r="1.6" fill="#fff" opacity=".07"/><circle cx="430" cy="510" r="1.6" fill="#fff" opacity=".07"/><circle cx="430" cy="550" r="1.6" fill="#fff" opacity=".07"/><circle cx="430" cy="590" r="1.6" fill="#fff" opacity=".07"/><circle cx="470" cy="30" r="1.6" fill="#fff" opacity=".07"/><circle cx="470" cy="70" r="1.6" fill="#fff" opacity=".07"/><circle cx="470" cy="110" r="1.6" fill="#fff" opacity=".07"/><circle cx="470" cy="150" r="1.6" fill="#fff" opacity=".07"/><circle cx="470" cy="190" r="1.6" fill="#fff" opacity=".07"/><circle cx="470" cy="230" r="1.6" fill="#fff" opacity=".07"/><circle cx="470" cy="270" r="1.6" fill="#fff" opacity=".07"/><circle cx="470" cy="310" r="1.6" fill="#fff" opacity=".07"/><circle cx="470" cy="350" r="1.6" fill="#fff" opacity=".07"/><circle cx="470" cy="390" r="1.6" fill="#fff" opacity=".07"/><circle cx="470" cy="430" r="1.6" fill="#fff" opacity=".07"/><circle cx="470" cy="470" r="1.6" fill="#fff" opacity=".07"/><circle cx="470" cy="510" r="1.6" fill="#fff" opacity=".07"/><circle cx="470" cy="550" r="1.6" fill="#fff" opacity=".07"/><circle cx="470" cy="590" r="1.6" fill="#fff" opacity=".07"/><circle cx="510" cy="30" r="1.6" fill="#fff" opacity=".07"/><circle cx="510" cy="70" r="1.6" fill="#fff" opacity=".07"/><circle cx="510" cy="110" r="1.6" fill="#fff" opacity=".07"/><circle cx="510" cy="150" r="1.6" fill="#fff" opacity=".07"/><circle cx="510" cy="190" r="1.6" fill="#fff" opacity=".07"/><circle cx="510" cy="230" r="1.6" fill="#fff" opacity=".07"/><circle cx="510" cy="270" r="1.6" fill="#fff" opacity=".07"/><circle cx="510" cy="310" r="1.6" fill="#fff" opacity=".07"/><circle cx="510" cy="350" r="1.6" fill="#fff" opacity=".07"/><circle cx="510" cy="390" r="1.6" fill="#fff" opacity=".07"/><circle cx="510" cy="430" r="1.6" fill="#fff" opacity=".07"/><circle cx="510" cy="470" r="1.6" fill="#fff" opacity=".07"/><circle cx="510" cy="510" r="1.6" fill="#fff" opacity=".07"/><circle cx="510" cy="550" r="1.6" fill="#fff" opacity=".07"/><circle cx="510" cy="590" r="1.6" fill="#fff" opacity=".07"/><circle cx="550" cy="30" r="1.6" fill="#fff" opacity=".07"/><circle cx="550" cy="70" r="1.6" fill="#fff" opacity=".07"/><circle cx="550" cy="110" r="1.6" fill="#fff" opacity=".07"/><circle cx="550" cy="150" r="1.6" fill="#fff" opacity=".07"/><circle cx="550" cy="190" r="1.6" fill="#fff" opacity=".07"/><circle cx="550" cy="230" r="1.6" fill="#fff" opacity=".07"/><circle cx="550" cy="270" r="1.6" fill="#fff" opacity=".07"/><circle cx="550" cy="310" r="1.6" fill="#fff" opacity=".07"/><circle cx="550" cy="350" r="1.6" fill="#fff" opacity=".07"/><circle cx="550" cy="390" r="1.6" fill="#fff" opacity=".07"/><circle cx="550" cy="430" r="1.6" fill="#fff" opacity=".07"/><circle cx="550" cy="470" r="1.6" fill="#fff" opacity=".07"/><circle cx="550" cy="510" r="1.6" fill="#fff" opacity=".07"/><circle cx="550" cy="550" r="1.6" fill="#fff" opacity=".07"/><circle cx="550" cy="590" r="1.6" fill="#fff" opacity=".07"/><circle cx="590" cy="30" r="1.6" fill="#fff" opacity=".07"/><circle cx="590" cy="70" r="1.6" fill="#fff" opacity=".07"/><circle cx="590" cy="110" r="1.6" fill="#fff" opacity=".07"/><circle cx="590" cy="150" r="1.6" fill="#fff" opacity=".07"/><circle cx="590" cy="190" r="1.6" fill="#fff" opacity=".07"/><circle cx="590" cy="230" r="1.6" fill="#fff" opacity=".07"/><circle cx="590" cy="270" r="1.6" fill="#fff" opacity=".07"/><circle cx="590" cy="310" r="1.6" fill="#fff" opacity=".07"/><circle cx="590" cy="350" r="1.6" fill="#fff" opacity=".07"/><circle cx="590" cy="390" r="1.6" fill="#fff" opacity=".07"/><circle cx="590" cy="430" r="1.6" fill="#fff" opacity=".07"/><circle cx="590" cy="470" r="1.6" fill="#fff" opacity=".07"/><circle cx="590" cy="510" r="1.6" fill="#fff" opacity=".07"/><circle cx="590" cy="550" r="1.6" fill="#fff" opacity=".07"/><circle cx="590" cy="590" r="1.6" fill="#fff" opacity=".07"/><circle cx="630" cy="30" r="1.6" fill="#fff" opacity=".07"/><circle cx="630" cy="70" r="1.6" fill="#fff" opacity=".07"/><circle cx="630" cy="110" r="1.6" fill="#fff" opacity=".07"/><circle cx="630" cy="150" r="1.6" fill="#fff" opacity=".07"/><circle cx="630" cy="190" r="1.6" fill="#fff" opacity=".07"/><circle cx="630" cy="230" r="1.6" fill="#fff" opacity=".07"/><circle cx="630" cy="270" r="1.6" fill="#fff" opacity=".07"/><circle cx="630" cy="310" r="1.6" fill="#fff" opacity=".07"/><circle cx="630" cy="350" r="1.6" fill="#fff" opacity=".07"/><circle cx="630" cy="390" r="1.6" fill="#fff" opacity=".07"/><circle cx="630" cy="430" r="1.6" fill="#fff" opacity=".07"/><circle cx="630" cy="470" r="1.6" fill="#fff" opacity=".07"/><circle cx="630" cy="510" r="1.6" fill="#fff" opacity=".07"/><circle cx="630" cy="550" r="1.6" fill="#fff" opacity=".07"/><circle cx="630" cy="590" r="1.6" fill="#fff" opacity=".07"/><circle cx="670" cy="30" r="1.6" fill="#fff" opacity=".07"/><circle cx="670" cy="70" r="1.6" fill="#fff" opacity=".07"/><circle cx="670" cy="110" r="1.6" fill="#fff" opacity=".07"/><circle cx="670" cy="150" r="1.6" fill="#fff" opacity=".07"/><circle cx="670" cy="190" r="1.6" fill="#fff" opacity=".07"/><circle cx="670" cy="230" r="1.6" fill="#fff" opacity=".07"/><circle cx="670" cy="270" r="1.6" fill="#fff" opacity=".07"/><circle cx="670" cy="310" r="1.6" fill="#fff" opacity=".07"/><circle cx="670" cy="350" r="1.6" fill="#fff" opacity=".07"/><circle cx="670" cy="390" r="1.6" fill="#fff" opacity=".07"/><circle cx="670" cy="430" r="1.6" fill="#fff" opacity=".07"/><circle cx="670" cy="470" r="1.6" fill="#fff" opacity=".07"/><circle cx="670" cy="510" r="1.6" fill="#fff" opacity=".07"/><circle cx="670" cy="550" r="1.6" fill="#fff" opacity=".07"/><circle cx="670" cy="590" r="1.6" fill="#fff" opacity=".07"/><circle cx="710" cy="30" r="1.6" fill="#fff" opacity=".07"/><circle cx="710" cy="70" r="1.6" fill="#fff" opacity=".07"/><circle cx="710" cy="110" r="1.6" fill="#fff" opacity=".07"/><circle cx="710" cy="150" r="1.6" fill="#fff" opacity=".07"/><circle cx="710" cy="190" r="1.6" fill="#fff" opacity=".07"/><circle cx="710" cy="230" r="1.6" fill="#fff" opacity=".07"/><circle cx="710" cy="270" r="1.6" fill="#fff" opacity=".07"/><circle cx="710" cy="310" r="1.6" fill="#fff" opacity=".07"/><circle cx="710" cy="350" r="1.6" fill="#fff" opacity=".07"/><circle cx="710" cy="390" r="1.6" fill="#fff" opacity=".07"/><circle cx="710" cy="430" r="1.6" fill="#fff" opacity=".07"/><circle cx="710" cy="470" r="1.6" fill="#fff" opacity=".07"/><circle cx="710" cy="510" r="1.6" fill="#fff" opacity=".07"/><circle cx="710" cy="550" r="1.6" fill="#fff" opacity=".07"/><circle cx="710" cy="590" r="1.6" fill="#fff" opacity=".07"/><circle cx="750" cy="30" r="1.6" fill="#fff" opacity=".07"/><circle cx="750" cy="70" r="1.6" fill="#fff" opacity=".07"/><circle cx="750" cy="110" r="1.6" fill="#fff" opacity=".07"/><circle cx="750" cy="150" r="1.6" fill="#fff" opacity=".07"/><circle cx="750" cy="190" r="1.6" fill="#fff" opacity=".07"/><circle cx="750" cy="230" r="1.6" fill="#fff" opacity=".07"/><circle cx="750" cy="270" r="1.6" fill="#fff" opacity=".07"/><circle cx="750" cy="310" r="1.6" fill="#fff" opacity=".07"/><circle cx="750" cy="350" r="1.6" fill="#fff" opacity=".07"/><circle cx="750" cy="390" r="1.6" fill="#fff" opacity=".07"/><circle cx="750" cy="430" r="1.6" fill="#fff" opacity=".07"/><circle cx="750" cy="470" r="1.6" fill="#fff" opacity=".07"/><circle cx="750" cy="510" r="1.6" fill="#fff" opacity=".07"/><circle cx="750" cy="550" r="1.6" fill="#fff" opacity=".07"/><circle cx="750" cy="590" r="1.6" fill="#fff" opacity=".07"/><circle cx="790" cy="30" r="1.6" fill="#fff" opacity=".07"/><circle cx="790" cy="70" r="1.6" fill="#fff" opacity=".07"/><circle cx="790" cy="110" r="1.6" fill="#fff" opacity=".07"/><circle cx="790" cy="150" r="1.6" fill="#fff" opacity=".07"/><circle cx="790" cy="190" r="1.6" fill="#fff" opacity=".07"/><circle cx="790" cy="230" r="1.6" fill="#fff" opacity=".07"/><circle cx="790" cy="270" r="1.6" fill="#fff" opacity=".07"/><circle cx="790" cy="310" r="1.6" fill="#fff" opacity=".07"/><circle cx="790" cy="350" r="1.6" fill="#fff" opacity=".07"/><circle cx="790" cy="390" r="1.6" fill="#fff" opacity=".07"/><circle cx="790" cy="430" r="1.6" fill="#fff" opacity=".07"/><circle cx="790" cy="470" r="1.6" fill="#fff" opacity=".07"/><circle cx="790" cy="510" r="1.6" fill="#fff" opacity=".07"/><circle cx="790" cy="550" r="1.6" fill="#fff" opacity=".07"/><circle cx="790" cy="590" r="1.6" fill="#fff" opacity=".07"/><circle cx="400" cy="290" r="270" fill="url(#halo)"/><ellipse cx="400" cy="508" rx="250" ry="26" fill="#000" opacity=".5" filter="url(#blur)"/><path d="M330 500C330 420 303.0 330 240 170" stroke="#7fb069" stroke-width="7" fill="none" stroke-linecap="round"/><ellipse cx="268" cy="195" rx="7" ry="16" fill="url(#gr)" stroke="#b7791f" stroke-width="1.5" transform="rotate(-22 280 195)"/><ellipse cx="292" cy="195" rx="7" ry="16" fill="url(#gr)" stroke="#b7791f" stroke-width="1.5" transform="rotate(22 280 195)"/><ellipse cx="268" cy="205" rx="7" ry="16" fill="url(#gr)" stroke="#b7791f" stroke-width="1.5" transform="rotate(-22 280 205)"/><ellipse cx="292" cy="205" rx="7" ry="16" fill="url(#gr)" stroke="#b7791f" stroke-width="1.5" transform="rotate(22 280 205)"/><ellipse cx="268" cy="215" rx="7" ry="16" fill="url(#gr)" stroke="#b7791f" stroke-width="1.5" transform="rotate(-22 280 215)"/><ellipse cx="292" cy="215" rx="7" ry="16" fill="url(#gr)" stroke="#b7791f" stroke-width="1.5" transform="rotate(22 280 215)"/><ellipse cx="267" cy="225" rx="7" ry="16" fill="url(#gr)" stroke="#b7791f" stroke-width="1.5" transform="rotate(-22 279 225)"/><ellipse cx="291" cy="225" rx="7" ry="16" fill="url(#gr)" stroke="#b7791f" stroke-width="1.5" transform="rotate(22 279 225)"/><ellipse cx="265" cy="235" rx="7" ry="16" fill="url(#gr)" stroke="#b7791f" stroke-width="1.5" transform="rotate(-22 277 235)"/><ellipse cx="289" cy="235" rx="7" ry="16" fill="url(#gr)" stroke="#b7791f" stroke-width="1.5" transform="rotate(22 277 235)"/><ellipse cx="262" cy="245" rx="7" ry="16" fill="url(#gr)" stroke="#b7791f" stroke-width="1.5" transform="rotate(-22 274 245)"/><ellipse cx="286" cy="245" rx="7" ry="16" fill="url(#gr)" stroke="#b7791f" stroke-width="1.5" transform="rotate(22 274 245)"/><ellipse cx="258" cy="255" rx="7" ry="16" fill="url(#gr)" stroke="#b7791f" stroke-width="1.5" transform="rotate(-22 270 255)"/><ellipse cx="282" cy="255" rx="7" ry="16" fill="url(#gr)" stroke="#b7791f" stroke-width="1.5" transform="rotate(22 270 255)"/><ellipse cx="253" cy="265" rx="7" ry="16" fill="url(#gr)" stroke="#b7791f" stroke-width="1.5" transform="rotate(-22 265 265)"/><ellipse cx="277" cy="265" rx="7" ry="16" fill="url(#gr)" stroke="#b7791f" stroke-width="1.5" transform="rotate(22 265 265)"/><ellipse cx="248" cy="275" rx="7" ry="16" fill="url(#gr)" stroke="#b7791f" stroke-width="1.5" transform="rotate(-22 260 275)"/><ellipse cx="272" cy="275" rx="7" ry="16" fill="url(#gr)" stroke="#b7791f" stroke-width="1.5" transform="rotate(22 260 275)"/><ellipse cx="242" cy="285" rx="7" ry="16" fill="url(#gr)" stroke="#b7791f" stroke-width="1.5" transform="rotate(-22 254 285)"/><ellipse cx="266" cy="285" rx="7" ry="16" fill="url(#gr)" stroke="#b7791f" stroke-width="1.5" transform="rotate(22 254 285)"/><ellipse cx="236" cy="295" rx="7" ry="16" fill="url(#gr)" stroke="#b7791f" stroke-width="1.5" transform="rotate(-22 248 295)"/><ellipse cx="260" cy="295" rx="7" ry="16" fill="url(#gr)" stroke="#b7791f" stroke-width="1.5" transform="rotate(22 248 295)"/><ellipse cx="231" cy="305" rx="7" ry="16" fill="url(#gr)" stroke="#b7791f" stroke-width="1.5" transform="rotate(-22 243 305)"/><ellipse cx="255" cy="305" rx="7" ry="16" fill="url(#gr)" stroke="#b7791f" stroke-width="1.5" transform="rotate(22 243 305)"/><ellipse cx="227" cy="315" rx="7" ry="16" fill="url(#gr)" stroke="#b7791f" stroke-width="1.5" transform="rotate(-22 239 315)"/><ellipse cx="251" cy="315" rx="7" ry="16" fill="url(#gr)" stroke="#b7791f" stroke-width="1.5" transform="rotate(22 239 315)"/><ellipse cx="223" cy="325" rx="7" ry="16" fill="url(#gr)" stroke="#b7791f" stroke-width="1.5" transform="rotate(-22 235 325)"/><ellipse cx="247" cy="325" rx="7" ry="16" fill="url(#gr)" stroke="#b7791f" stroke-width="1.5" transform="rotate(22 235 325)"/><ellipse cx="220" cy="335" rx="7" ry="16" fill="url(#gr)" stroke="#b7791f" stroke-width="1.5" transform="rotate(-22 232 335)"/><ellipse cx="244" cy="335" rx="7" ry="16" fill="url(#gr)" stroke="#b7791f" stroke-width="1.5" transform="rotate(22 232 335)"/><path d="M420 500C420 420 438.0 330 480 140" stroke="#7fb069" stroke-width="7" fill="none" stroke-linecap="round"/><ellipse cx="441" cy="165" rx="7" ry="16" fill="url(#gr)" stroke="#b7791f" stroke-width="1.5" transform="rotate(-22 453 165)"/><ellipse cx="465" cy="165" rx="7" ry="16" fill="url(#gr)" stroke="#b7791f" stroke-width="1.5" transform="rotate(22 453 165)"/><ellipse cx="446" cy="175" rx="7" ry="16" fill="url(#gr)" stroke="#b7791f" stroke-width="1.5" transform="rotate(-22 458 175)"/><ellipse cx="470" cy="175" rx="7" ry="16" fill="url(#gr)" stroke="#b7791f" stroke-width="1.5" transform="rotate(22 458 175)"/><ellipse cx="450" cy="185" rx="7" ry="16" fill="url(#gr)" stroke="#b7791f" stroke-width="1.5" transform="rotate(-22 462 185)"/><ellipse cx="474" cy="185" rx="7" ry="16" fill="url(#gr)" stroke="#b7791f" stroke-width="1.5" transform="rotate(22 462 185)"/><ellipse cx="454" cy="195" rx="7" ry="16" fill="url(#gr)" stroke="#b7791f" stroke-width="1.5" transform="rotate(-22 466 195)"/><ellipse cx="478" cy="195" rx="7" ry="16" fill="url(#gr)" stroke="#b7791f" stroke-width="1.5" transform="rotate(22 466 195)"/><ellipse cx="457" cy="205" rx="7" ry="16" fill="url(#gr)" stroke="#b7791f" stroke-width="1.5" transform="rotate(-22 469 205)"/><ellipse cx="481" cy="205" rx="7" ry="16" fill="url(#gr)" stroke="#b7791f" stroke-width="1.5" transform="rotate(22 469 205)"/><ellipse cx="458" cy="215" rx="7" ry="16" fill="url(#gr)" stroke="#b7791f" stroke-width="1.5" transform="rotate(-22 470 215)"/><ellipse cx="482" cy="215" rx="7" ry="16" fill="url(#gr)" stroke="#b7791f" stroke-width="1.5" transform="rotate(22 470 215)"/><ellipse cx="459" cy="225" rx="7" ry="16" fill="url(#gr)" stroke="#b7791f" stroke-width="1.5" transform="rotate(-22 471 225)"/><ellipse cx="483" cy="225" rx="7" ry="16" fill="url(#gr)" stroke="#b7791f" stroke-width="1.5" transform="rotate(22 471 225)"/><ellipse cx="459" cy="235" rx="7" ry="16" fill="url(#gr)" stroke="#b7791f" stroke-width="1.5" transform="rotate(-22 471 235)"/><ellipse cx="483" cy="235" rx="7" ry="16" fill="url(#gr)" stroke="#b7791f" stroke-width="1.5" transform="rotate(22 471 235)"/><ellipse cx="459" cy="245" rx="7" ry="16" fill="url(#gr)" stroke="#b7791f" stroke-width="1.5" transform="rotate(-22 471 245)"/><ellipse cx="483" cy="245" rx="7" ry="16" fill="url(#gr)" stroke="#b7791f" stroke-width="1.5" transform="rotate(22 471 245)"/><ellipse cx="458" cy="255" rx="7" ry="16" fill="url(#gr)" stroke="#b7791f" stroke-width="1.5" transform="rotate(-22 470 255)"/><ellipse cx="482" cy="255" rx="7" ry="16" fill="url(#gr)" stroke="#b7791f" stroke-width="1.5" transform="rotate(22 470 255)"/><ellipse cx="457" cy="265" rx="7" ry="16" fill="url(#gr)" stroke="#b7791f" stroke-width="1.5" transform="rotate(-22 469 265)"/><ellipse cx="481" cy="265" rx="7" ry="16" fill="url(#gr)" stroke="#b7791f" stroke-width="1.5" transform="rotate(22 469 265)"/><ellipse cx="457" cy="275" rx="7" ry="16" fill="url(#gr)" stroke="#b7791f" stroke-width="1.5" transform="rotate(-22 469 275)"/><ellipse cx="481" cy="275" rx="7" ry="16" fill="url(#gr)" stroke="#b7791f" stroke-width="1.5" transform="rotate(22 469 275)"/><ellipse cx="457" cy="285" rx="7" ry="16" fill="url(#gr)" stroke="#b7791f" stroke-width="1.5" transform="rotate(-22 469 285)"/><ellipse cx="481" cy="285" rx="7" ry="16" fill="url(#gr)" stroke="#b7791f" stroke-width="1.5" transform="rotate(22 469 285)"/><ellipse cx="458" cy="295" rx="7" ry="16" fill="url(#gr)" stroke="#b7791f" stroke-width="1.5" transform="rotate(-22 470 295)"/><ellipse cx="482" cy="295" rx="7" ry="16" fill="url(#gr)" stroke="#b7791f" stroke-width="1.5" transform="rotate(22 470 295)"/><ellipse cx="460" cy="305" rx="7" ry="16" fill="url(#gr)" stroke="#b7791f" stroke-width="1.5" transform="rotate(-22 472 305)"/><ellipse cx="484" cy="305" rx="7" ry="16" fill="url(#gr)" stroke="#b7791f" stroke-width="1.5" transform="rotate(22 472 305)"/><path d="M510 500C510 420 552.0 330 650 180" stroke="#7fb069" stroke-width="7" fill="none" stroke-linecap="round"/><ellipse cx="575" cy="205" rx="7" ry="16" fill="url(#gr)" stroke="#b7791f" stroke-width="1.5" transform="rotate(-22 587 205)"/><ellipse cx="599" cy="205" rx="7" ry="16" fill="url(#gr)" stroke="#b7791f" stroke-width="1.5" transform="rotate(22 587 205)"/><ellipse cx="582" cy="215" rx="7" ry="16" fill="url(#gr)" stroke="#b7791f" stroke-width="1.5" transform="rotate(-22 594 215)"/><ellipse cx="606" cy="215" rx="7" ry="16" fill="url(#gr)" stroke="#b7791f" stroke-width="1.5" transform="rotate(22 594 215)"/><ellipse cx="589" cy="225" rx="7" ry="16" fill="url(#gr)" stroke="#b7791f" stroke-width="1.5" transform="rotate(-22 601 225)"/><ellipse cx="613" cy="225" rx="7" ry="16" fill="url(#gr)" stroke="#b7791f" stroke-width="1.5" transform="rotate(22 601 225)"/><ellipse cx="596" cy="235" rx="7" ry="16" fill="url(#gr)" stroke="#b7791f" stroke-width="1.5" transform="rotate(-22 608 235)"/><ellipse cx="620" cy="235" rx="7" ry="16" fill="url(#gr)" stroke="#b7791f" stroke-width="1.5" transform="rotate(22 608 235)"/><ellipse cx="601" cy="245" rx="7" ry="16" fill="url(#gr)" stroke="#b7791f" stroke-width="1.5" transform="rotate(-22 613 245)"/><ellipse cx="625" cy="245" rx="7" ry="16" fill="url(#gr)" stroke="#b7791f" stroke-width="1.5" transform="rotate(22 613 245)"/><ellipse cx="605" cy="255" rx="7" ry="16" fill="url(#gr)" stroke="#b7791f" stroke-width="1.5" transform="rotate(-22 617 255)"/><ellipse cx="629" cy="255" rx="7" ry="16" fill="url(#gr)" stroke="#b7791f" stroke-width="1.5" transform="rotate(22 617 255)"/><ellipse cx="609" cy="265" rx="7" ry="16" fill="url(#gr)" stroke="#b7791f" stroke-width="1.5" transform="rotate(-22 621 265)"/><ellipse cx="633" cy="265" rx="7" ry="16" fill="url(#gr)" stroke="#b7791f" stroke-width="1.5" transform="rotate(22 621 265)"/><ellipse cx="611" cy="275" rx="7" ry="16" fill="url(#gr)" stroke="#b7791f" stroke-width="1.5" transform="rotate(-22 623 275)"/><ellipse cx="635" cy="275" rx="7" ry="16" fill="url(#gr)" stroke="#b7791f" stroke-width="1.5" transform="rotate(22 623 275)"/><ellipse cx="613" cy="285" rx="7" ry="16" fill="url(#gr)" stroke="#b7791f" stroke-width="1.5" transform="rotate(-22 625 285)"/><ellipse cx="637" cy="285" rx="7" ry="16" fill="url(#gr)" stroke="#b7791f" stroke-width="1.5" transform="rotate(22 625 285)"/><ellipse cx="615" cy="295" rx="7" ry="16" fill="url(#gr)" stroke="#b7791f" stroke-width="1.5" transform="rotate(-22 627 295)"/><ellipse cx="639" cy="295" rx="7" ry="16" fill="url(#gr)" stroke="#b7791f" stroke-width="1.5" transform="rotate(22 627 295)"/><ellipse cx="617" cy="305" rx="7" ry="16" fill="url(#gr)" stroke="#b7791f" stroke-width="1.5" transform="rotate(-22 629 305)"/><ellipse cx="641" cy="305" rx="7" ry="16" fill="url(#gr)" stroke="#b7791f" stroke-width="1.5" transform="rotate(22 629 305)"/><ellipse cx="619" cy="315" rx="7" ry="16" fill="url(#gr)" stroke="#b7791f" stroke-width="1.5" transform="rotate(-22 631 315)"/><ellipse cx="643" cy="315" rx="7" ry="16" fill="url(#gr)" stroke="#b7791f" stroke-width="1.5" transform="rotate(22 631 315)"/><ellipse cx="622" cy="325" rx="7" ry="16" fill="url(#gr)" stroke="#b7791f" stroke-width="1.5" transform="rotate(-22 634 325)"/><ellipse cx="646" cy="325" rx="7" ry="16" fill="url(#gr)" stroke="#b7791f" stroke-width="1.5" transform="rotate(22 634 325)"/><ellipse cx="626" cy="335" rx="7" ry="16" fill="url(#gr)" stroke="#b7791f" stroke-width="1.5" transform="rotate(-22 638 335)"/><ellipse cx="650" cy="335" rx="7" ry="16" fill="url(#gr)" stroke="#b7791f" stroke-width="1.5" transform="rotate(22 638 335)"/><ellipse cx="630" cy="345" rx="7" ry="16" fill="url(#gr)" stroke="#b7791f" stroke-width="1.5" transform="rotate(-22 642 345)"/><ellipse cx="654" cy="345" rx="7" ry="16" fill="url(#gr)" stroke="#b7791f" stroke-width="1.5" transform="rotate(22 642 345)"/><g transform="translate(300,505) rotate(-75) scale(1.5)"><path d="M0 0C40-30 110-30 150 0C110 30 40 30 0 0Z" fill="#7fb069"/><path d="M0 0C40-30 110-30 150 0C110 30 40 30 0 0Z" fill="url(#leafshade)" opacity=".5"/><path d="M5 0H140" stroke="#2f6f3a" stroke-width="3" opacity=".7"/></g><g transform="translate(560,505) rotate(-105) scale(1.5)"><path d="M0 0C40-30 110-30 150 0C110 30 40 30 0 0Z" fill="#7fb069"/><path d="M0 0C40-30 110-30 150 0C110 30 40 30 0 0Z" fill="url(#leafshade)" opacity=".5"/><path d="M5 0H140" stroke="#2f6f3a" stroke-width="3" opacity=".7"/></g><ellipse cx="519" cy="533" rx="9" ry="5.5" fill="#f5e6b8" stroke="#00000033" transform="rotate(10 519 533)"/><ellipse cx="301" cy="528" rx="9" ry="5.5" fill="#f5e6b8" stroke="#00000033" transform="rotate(132 301 528)"/><ellipse cx="447" cy="507" rx="9" ry="5.5" fill="#f5e6b8" stroke="#00000033" transform="rotate(109 447 507)"/><ellipse cx="432" cy="518" rx="9" ry="5.5" fill="#f5e6b8" stroke="#00000033" transform="rotate(29 432 518)"/><ellipse cx="388" cy="511" rx="9" ry="5.5" fill="#f5e6b8" stroke="#00000033" transform="rotate(130 388 511)"/><ellipse cx="529" cy="533" rx="9" ry="5.5" fill="#f5e6b8" stroke="#00000033" transform="rotate(98 529 533)"/><ellipse cx="391" cy="506" rx="9" ry="5.5" fill="#f5e6b8" stroke="#00000033" transform="rotate(6 391 506)"/><ellipse cx="287" cy="514" rx="9" ry="5.5" fill="#f5e6b8" stroke="#00000033" transform="rotate(57 287 514)"/><ellipse cx="375" cy="531" rx="9" ry="5.5" fill="#f5e6b8" stroke="#00000033" transform="rotate(95 375 531)"/><ellipse cx="420" cy="504" rx="9" ry="5.5" fill="#f5e6b8" stroke="#00000033" transform="rotate(4 420 504)"/><ellipse cx="361" cy="500" rx="9" ry="5.5" fill="#f5e6b8" stroke="#00000033" transform="rotate(92 361 500)"/><ellipse cx="530" cy="522" rx="9" ry="5.5" fill="#f5e6b8" stroke="#00000033" transform="rotate(33 530 522)"/><ellipse cx="503" cy="527" rx="9" ry="5.5" fill="#f5e6b8" stroke="#00000033" transform="rotate(132 503 527)"/><ellipse cx="507" cy="526" rx="9" ry="5.5" fill="#f5e6b8" stroke="#00000033" transform="rotate(142 507 526)"/><ellipse cx="368" cy="534" rx="9" ry="5.5" fill="#f5e6b8" stroke="#00000033" transform="rotate(173 368 534)"/><ellipse cx="320" cy="525" rx="9" ry="5.5" fill="#f5e6b8" stroke="#00000033" transform="rotate(129 320 525)"/><ellipse cx="395" cy="516" rx="9" ry="5.5" fill="#f5e6b8" stroke="#00000033" transform="rotate(88 395 516)"/><ellipse cx="511" cy="515" rx="9" ry="5.5" fill="#f5e6b8" stroke="#00000033" transform="rotate(150 511 515)"/><ellipse cx="368" cy="530" rx="9" ry="5.5" fill="#f5e6b8" stroke="#00000033" transform="rotate(162 368 530)"/><ellipse cx="395" cy="518" rx="9" ry="5.5" fill="#f5e6b8" stroke="#00000033" transform="rotate(166 395 518)"/><ellipse cx="461" cy="514" rx="9" ry="5.5" fill="#f5e6b8" stroke="#00000033" transform="rotate(40 461 514)"/><ellipse cx="361" cy="523" rx="9" ry="5.5" fill="#f5e6b8" stroke="#00000033" transform="rotate(30 361 523)"/><ellipse cx="507" cy="506" rx="9" ry="5.5" fill="#f5e6b8" stroke="#00000033" transform="rotate(164 507 506)"/><ellipse cx="357" cy="533" rx="9" ry="5.5" fill="#f5e6b8" stroke="#00000033" transform="rotate(127 357 533)"/><ellipse cx="406" cy="516" rx="9" ry="5.5" fill="#f5e6b8" stroke="#00000033" transform="rotate(117 406 516)"/><ellipse cx="427" cy="507" rx="9" ry="5.5" fill="#f5e6b8" stroke="#00000033" transform="rotate(37 427 507)"/></svg>