<svg xmlns="http://www.w3.org/2000/svg" viewBox="0 0 800 600" role="img"><defs><radialGradient id="bg" cx=".5" cy=".42" r=".75"><stop offset="0" stop-color="#74c0fc" stop-opacity=".30"/><stop offset=".55" stop-color="#0B120D"/><stop offset="1" stop-color="#050805"/></radialGradient><radialGradient id="halo" cx=".5" cy=".5" r=".5"><stop offset="0" stop-color="#74c0fc" stop-opacity=".35"/><stop offset="1" stop-color="#74c0fc" stop-opacity="0"/></radialGradient><filter id="blur"><feGaussianBlur stdDeviation="9"/></filter><linearGradient id="leafshade" x1="0" y1="0" x2="0" y2="1"><stop offset="0" stop-color="#fff" stop-opacity=".35"/><stop offset="1" stop-color="#000" stop-opacity=".35"/></linearGradient></defs><rect width="800" height="600" fill="url(#bg)"/><circle cx="30" cy="30" r="1.6" fill="#fff" opacity=".07"/><circle cx="30" cy="70" r="1.6" fill="#fff" opacity=".07"/><circle cx="30" cy="110" r="1.6" fill="#fff" opacity=".07"/><circle cx="30" cy="150" r="1.6" fill="#fff" opacity=".07"/><circle cx="30" cy="190" r="1.6" fill="#fff" opacity=".07"/><circle cx="30" cy="230" r="1.6" fill="#fff" opacity=".07"/><circle cx="30" cy="270" r="1.6" fill="#fff" opacity=".07"/><circle cx="30" cy="310" r="1.6" fill="#fff" opacity=".07"/><circle cx="30" cy="350" r="1.6" fill="#fff" opacity=".07"/><circle cx="30" cy="390" r="1.6" fill="#fff" opacity=".07"/><circle cx="30" cy="430" r="1.6" fill="#fff" opacity=".07"/><circle cx="30" cy="470" r="1.6" fill="#fff" opacity=".07"/><circle cx="30" cy="510" r="1.6" fill="#fff" opacity=".07"/><circle cx="30" cy="550" r="1.6" fill="#fff" opacity=".07"/><circle cx="30" cy="590" r="1.6" fill="#fff" opacity=".07"/><circle cx="70" cy="30" r="1.6" fill="#fff" opacity=".07"/><circle cx="70" cy="70" r="1.6" fill="#fff" opacity=".07"/><circle cx="70" cy="110" r="1.6" fill="#fff" opacity=".07"/><circle cx="70" cy="150" r="1.6" fill="#fff" opacity=".07"/><circle cx="70" cy="190" r="1.6" fill="#fff" opacity=".07"/><circle cx="70" cy="230" r="1.6" fill="#fff" opacity=".07"/><circle cx="70" cy="270" r="1.6" fill="#fff" opacity=".07"/><circle cx="70" cy="310" r="1.6" fill="#fff" opacity=".07"/><circle cx="70" cy="350" r="1.6" fill="#fff" opacity=".07"/><circle cx="70" cy="390" r="1.6" fill="#fff" opacity=".07"/><circle cx="70" cy="430" r="1.6" fill="#fff" opacity=".07"/><circle cx="70" cy="470" r="1.6" fill="#fff" opacity=".07"/><circle cx="70" cy="510" r="1.6" fill="#fff" opacity=".07"/><circle cx="70" cy="550" r="1.6" fill="#fff" opacity=".07"/><circle cx="70" cy="590" r="1.6" fill="#fff" opacity=".07"/><circle cx="110" cy="30" r="1.6" fill="#fff" opacity=".07"/><circle cx="110" cy="70" r="1.6" fill="#fff" opacity=".07"/><circle cx="110" cy="110" r="1.6" fill="#fff" opacity=".07"/><circle cx="110" cy="150" r="1.6" fill="#fff" opacity=".07"/><circle cx="110" cy="190" r="1.6" fill="#fff" opacity=".07"/><circle cx="110" cy="230" r="1.6" fill="#fff" opacity=".07"/><circle cx="110" cy="270" r="1.6" fill="#fff" opacity=".07"/><circle cx="110" cy="310" r="1.6" fill="#fff" opacity=".07"/><circle cx="110" cy="350" r="1.6" fill="#fff" opacity=".07"/><circle cx="110" cy="390" r="1.6" fill="#fff" opacity=".07"/><circle cx="110" cy="430" r="1.6" fill="#fff" opacity=".07"/><circle cx="110" cy="470" r="1.6" fill="#fff" opacity=".07"/><circle cx="110" cy="510" r="1.6" fill="#fff" opacity=".07"/><circle cx="110" cy="550" r="1.6" fill="#fff" opacity=".07"/><circle cx="110" cy="590" r="1.6" fill="#fff" opacity=".07"/><circle cx="150" cy="30" r="1.6" fill="#fff" opacity=".07"/><circle cx="150" cy="70" r="1.6" fill="#fff" opacity=".07"/><circle cx="150" cy="110" r="1.6" fill="#fff" opacity=".07"/><circle cx="150" cy="150" r="1.6" fill="#fff" opacity=".07"/><circle cx="150" cy="190" r="1.6" fill="#fff" opacity=".07"/><circle cx="150" cy="230" r="1.6" fill="#fff" opacity=".07"/><circle cx="150" cy="270" r="1.6" fill="#fff" opacity=".07"/><circle cx="150" cy="310" r="1.6" fill="#fff" opacity=".07"/><circle cx="150" cy="350" r="1.6" fill="#fff" opacity=".07"/><circle cx="150" cy="390" r="1.6" fill="#fff" opacity=".07"/><circle cx="150" cy="430" r="1.6" fill="#fff" opacity=".07"/><circle cx="150" cy="470" r="1.6" fill="#fff" opacity=".07"/><circle cx="150" cy="510" r="1.6" fill="#fff" opacity=".07"/><circle cx="150" cy="550" r="1.6" fill="#fff" opacity=".07"/><circle cx="150" cy="590" r="1.6" fill="#fff" opacity=".07"/><circle cx="190" cy="30" r="1.6" fill="#fff" opacity=".07"/><circle cx="190" cy="70" r="1.6" fill="#fff" opacity=".07"/><circle cx="190" cy="110" r="1.6" fill="#fff" opacity=".07"/><circle cx="190" cy="150" r="1.6" fill="#fff" opacity=".07"/><circle cx="190" cy="190" r="1.6" fill="#fff" opacity=".07"/><circle cx="190" cy="230" r="1.6" fill="#fff" opacity=".07"/><circle cx="190" cy="270" r="1.6" fill="#fff" opacity=".07"/><circle cx="190" cy="310" r="1.6" fill="#fff" opacity=".07"/><circle cx="190" cy="350" r="1.6" fill="#fff" opacity=".07"/><circle cx="190" cy="390" r="1.6" fill="#fff" opacity=".07"/><circle cx="190" cy="430" r="1.6" fill="#fff" opacity=".07"/><circle cx="190" cy="470" r="1.6" fill="#fff" opacity=".07"/><circle cx="190" cy="510" r="1.6" fill="#fff" opacity=".07"/><circle cx="190" cy="550" r="1.6" fill="#fff" opacity=".07"/><circle cx="190" cy="590" r="1.6" fill="#fff" opacity=".07"/><circle cx="230" cy="30" r="1.6" fill="#fff" opacity=".07"/><circle cx="230" cy="70" r="1.6" fill="#fff" opacity=".07"/><circle cx="230" cy="110" r="1.6" fill="#fff" opacity=".07"/><circle cx="230" cy="150" r="1.6" fill="#fff" opacity=".07"/><circle cx="230" cy="190" r="1.6" fill="#fff" opacity=".07"/><circle cx="230" cy="230" r="1.6" fill="#fff" opacity=".07"/><circle cx="230" cy="270" r="1.6" fill="#fff" opacity=".07"/><circle cx="230" cy="310" r="1.6" fill="#fff" opacity=".07"/><circle cx="230" cy="350" r="1.6" fill="#fff" opacity=".07"/><circle cx="230" cy="390" r="1.6" fill="#fff" opacity=".07"/><circle cx="230" cy="430" r="1.6" fill="#fff" opacity=".07"/><circle cx="230" cy="470" r="1.6" fill="#fff" opacity=".07"/><circle cx="230" cy="510" r="1.6" fill="#fff" opacity=".07"/><circle cx="230" cy="550" r="1.6" fill="#fff" opacity=".07"/><circle cx="230" cy="590" r="1.6" fill="#fff" opacity=".07"/><circle cx="270" cy="30" r="1.6" fill="#fff" opacity=".07"/><circle cx="270" cy="70" r="1.6" fill="#fff" opacity=".07"/><circle cx="270" cy="110" r="1.6" fill="#fff" opacity=".07"/><circle cx="270" cy="150" r="1.6" fill="#fff" opacity=".07"/><circle cx="270" cy="190" r="1.6" fill="#fff" opacity=".07"/><circle cx="270" cy="230" r="1.6" fill="#fff" opacity=".07"/><circle cx="270" cy="270" r="1.6" fill="#fff" opacity=".07"/><circle cx="270" cy="310" r="1.6" fill="#fff" opacity=".07"/><circle cx="270" cy="350" r="1.6" fill="#fff" opacity=".07"/><circle cx="270" cy="390" r="1.6" fill="#fff" opacity=".07"/><circle cx="270" cy="430" r="1.6" fill="#fff" opacity=".07"/><circle cx="270" cy="470" r="1.6" fill="#fff" opacity=".07"/><circle cx="270" cy="510" r="1.6" fill="#fff" opacity=".07"/><circle cx="270" cy="550" r="1.6" fill="#fff" opacity=".07"/><circle cx="270" cy="590" r="1.6" fill="#fff" opacity=".07"/><circle cx="310" cy="30" r="1.6" fill="#fff" opacity=".07"/><circle cx="310" cy="70" r="1.6" fill="#fff" opacity=".07"/><circle cx="310" cy="110" r="1.6" fill="#fff" opacity=".07"/><circle cx="310" cy="150" r="1.6" fill="#fff" opacity=".07"/><circle cx="310" cy="190" r="1.6" fill="#fff" opacity=".07"/><circle cx="310" cy="230" r="1.6" fill="#fff" opacity=".07"/><circle cx="310" cy="270" r="1.6" fill="#fff" opacity=".07"/><circle cx="310" cy="310" r="1.6" fill="#fff" opacity=".07"/><circle cx="310" cy="350" r="1.6" fill="#fff" opacity=".07"/><circle cx="310" cy="390" r="1.6" fill="#fff" opacity=".07"/><circle cx="310" cy="430" r="1.6" fill="#fff" opacity=".07"/><circle cx="310" cy="470" r="1.6" fill="#fff" opacity=".07"/><circle cx="310" cy="510" r="1.6" fill="#fff" opacity=".07"/><circle cx="310" cy="550" r="1.6" fill="#fff" opacity=".07"/><circle cx="310" cy="590" r="1.6" fill="#fff" opacity=".07"/><circle cx="350" cy="30" r="1.6" fill="#fff" opacity=".07"/><circle cx="350" cy="70" r="1.6" fill="#fff" opacity=".07"/><circle cx="350" cy="110" r="1.6" fill="#fff" opacity=".07"/><circle cx="350" cy="150" r="1.6" fill="#fff" opacity=".07"/><circle cx="350" cy="190" r="1.6" fill="#fff" opacity=".07"/><circle cx="350" cy="230" r="1.6" fill="#fff" opacity=".07"/><circle cx="350" cy="270" r="1.6" fill="#fff" opacity=".07"/><circle cx="350" cy="310" r="1.6" fill="#fff" opacity=".07"/><circle cx="350" cy="350" r="1.6" fill="#fff" opacity=".07"/><circle cx="350" cy="390" r="1.6" fill="#fff" opacity=".07"/><circle cx="350" cy="430" r="1.6" fill="#fff" opacity=".07"/><circle cx="350" cy="470" r="1.6" fill="#fff" opacity=".07"/><circle cx="350" cy="510" r="1.6" fill="#fff" opacity=".07"/><circle cx="350" cy="550" r="1.6" fill="#fff" opacity=".07"/><circle cx="350" cy="590" r="1.6" fill="#fff" opacity=".07"/><circle cx="390" cy="30" r="1.6" fill="#fff" opacity=".07"/><circle cx="390" cy="70" r="1.6" fill="#fff" opacity=".07"/><circle cx="390" cy="110" r="1.6" fill="#fff" opacity=".07"/><circle cx="390" cy="150" r="1.6" fill="#fff" opacity=".07"/><circle cx="390" cy="190" r="1.6" fill="#fff" opacity=".07"/><circle cx="390" cy="230" r="1.6" fill="#fff" opacity=".07"/><circle cx="390" cy="270" r="1.6" fill="#fff" opacity=".07"/><circle cx="390" cy="310" r="1.6" fill="#fff" opacity=".07"/><circle cx="390" cy="350" r="1.6" fill="#fff" opacity=".07"/><circle cx="390" cy="390" r="1.6" fill="#fff" opacity=".07"/><circle cx="390" cy="430" r="1.6" fill="#fff" opacity=".07"/><circle cx="390" cy="470" r="1.6" fill="#fff" opacity=".07"/><circle cx="390" cy="510" r="1.6" fill="#fff" opacity=".07"/><circle cx="390" cy="550" r="1.6" fill="#fff" opacity=".07"/><circle cx="390" cy="590" r="1.6" fill="#fff" opacity=".07"/><circle cx="430" cy="30" r="1.6" fill="#fff" opacity=".07"/><circle cx="430" cy="70" r="1.6" fill="#fff" opacity=".07"/><circle cx="430" cy="110" r="1.6" fill="#fff" opacity=".07"/><circle cx="430" cy="150" r="1.6" fill="#fff" opacity=".07"/><circle cx="430" cy="190" r="1.6" fill="#fff" opacity=".07"/><circle cx="430" cy="230" r="1.6" fill="#fff" opacity=".07"/><circle cx="430" cy="270" r="1.6" fill="#fff" opacity=".07"/><circle cx="430" cy="310" r="1.6" fill="#fff" opacity=".07"/><circle cx="430" cy="350" r="1.6" fill="#fff" opacity=".07"/><circle cx="430" cy="390" r="1.6" fill="#fff" opacity=".07"/><circle cx="430" cy="430" r="1.6" fill="#fff" opacity=".07"/><circle cx="430" cy="470" r="1.6" fill="#fff" opacity=".07"/><circle cx="430" cy="510" r="1.6" fill="#fff" opacity=".07"/><circle cx="430" cy="550" r="1.6" fill="#fff" opacity=".07"/><circle cx="430" cy="590" r="1.6" fill="#fff" opacity=".07"/><circle cx="470" cy="30" r="1.6" fill="#fff" opacity=".07"/><circle cx="470" cy="70" r="1.6" fill="#fff" opacity=".07"/><circle cx="470" cy="110" r="1.6" fill="#fff" opacity=".07"/><circle cx="470" cy="150" r="1.6" fill="#fff" opacity=".07"/><circle cx="470" cy="190" r="1.6" fill="#fff" opacity=".07"/><circle cx="470" cy="230" r="1.6" fill="#fff" opacity=".07"/><circle cx="470" cy="270" r="1.6" fill="#fff" opacity=".07"/><circle cx="470" cy="310" r="1.6" fill="#fff" opacity=".07"/><circle cx="470" cy="350" r="1.6" fill="#fff" opacity=".07"/><circle cx="470" cy="390" r="1.6" fill="#fff" opacity=".07"/><circle cx="470" cy="430" r="1.6" fill="#fff" opacity=".07"/><circle cx="470" cy="470" r="1.6" fill="#fff" opacity=".07"/><circle cx="470" cy="510" r="1.6" fill="#fff" opacity=".07"/><circle cx="470" cy="550" r="1.6" fill="#fff" opacity=".07"/><circle cx="470" cy="590" r="1.6" fill="#fff" opacity=".07"/><circle cx="510" cy="30" r="1.6" fill="#fff" opacity=".07"/><circle cx="510" cy="70" r="1.6" fill="#fff" opacity=".07"/><circle cx="510" cy="110" r="1.6" fill="#fff" opacity=".07"/><circle cx="510" cy="150" r="1.6" fill="#fff" opacity=".07"/><circle cx="510" cy="190" r="1.6" fill="#fff" opacity=".07"/><circle cx="510" cy="230" r="1.6" fill="#fff" opacity=".07"/><circle cx="510" cy="270" r="1.6" fill="#fff" opacity=".07"/><circle cx="510" cy="310" r="1.6" fill="#fff" opacity=".07"/><circle cx="510" cy="350" r="1.6" fill="#fff" opacity=".07"/><circle cx="510" cy="390" r="1.6" fill="#fff" opacity=".07"/><circle cx="510" cy="430" r="1.6" fill="#fff" opacity=".07"/><circle cx="510" cy="470" r="1.6" fill="#fff" opacity=".07"/><circle cx="510" cy="510" r="1.6" fill="#fff" opacity=".07"/><circle cx="510" cy="550" r="1.6" fill="#fff" opacity=".07"/><circle cx="510" cy="590" r="1.6" fill="#fff" opacity=".07"/><circle cx="550" cy="30" r="1.6" fill="#fff" opacity=".07"/><circle cx="550" cy="70" r="1.6" fill="#fff" opacity=".07"/><circle cx="550" cy="110" r="1.6" fill="#fff" opacity=".07"/><circle cx="550" cy="150" r="1.6" fill="#fff" opacity=".07"/><circle cx="550" cy="190" r="1.6" fill="#fff" opacity=".07"/><circle cx="550" cy="230" r="1.6" fill="#fff" opacity=".07"/><circle cx="550" cy="270" r="1.6" fill="#fff" opacity=".07"/><circle cx="550" cy="310" r="1.6" fill="#fff" opacity=".07"/><circle cx="550" cy="350" r="1.6" fill="#fff" opacity=".07"/><circle cx="550" cy="390" r="1.6" fill="#fff" opacity=".07"/><circle cx="550" cy="430" r="1.6" fill="#fff" opacity=".07"/><circle cx="550" cy="470" r="1.6" fill="#fff" opacity=".07"/><circle cx="550" cy="510" r="1.6" fill="#fff" opacity=".07"/><circle cx="550" cy="550" r="1.6" fill="#fff" opacity=".07"/><circle cx="550" cy="590" r="1.6" fill="#fff" opacity=".07"/><circle cx="590" cy="30" r="1.6" fill="#fff" opacity=".07"/><circle cx="590" cy="70" r="1.6" fill="#fff" opacity=".07"/><circle cx="590" cy="110" r="1.6" fill="#fff" opacity=".07"/><circle cx="590" cy="150" r="1.6" fill="#fff" opacity=".07"/><circle cx="590" cy="190" r="1.6" fill="#fff" opacity=".07"/><circle cx="590" cy="230" r="1.6" fill="#fff" opacity=".07"/><circle cx="590" cy="270" r="1.6" fill="#fff" opacity=".07"/><circle cx="590" cy="310" r="1.6" fill="#fff" opacity=".07"/><circle cx="590" cy="350" r="1.6" fill="#fff" opacity=".07"/><circle cx="590" cy="390" r="1.6" fill="#fff" opacity=".07"/><circle cx="590" cy="430" r="1.6" fill="#fff" opacity=".07"/><circle cx="590" cy="470" r="1.6" fill="#fff" opacity=".07"/><circle cx="590" cy="510" r="1.6" fill="#fff" opacity=".07"/><circle cx="590" cy="550" r="1.6" fill="#fff" opacity=".07"/><circle cx="590" cy="590" r="1.6" fill="#fff" opacity=".07"/><circle cx="630" cy="30" r="1.6" fill="#fff" opacity=".07"/><circle cx="630" cy="70" r="1.6" fill="#fff" opacity=".07"/><circle cx="630" cy="110" r="1.6" fill="#fff" opacity=".07"/><circle cx="630" cy="150" r="1.6" fill="#fff" opacity=".07"/><circle cx="630" cy="190" r="1.6" fill="#fff" opacity=".07"/><circle cx="630" cy="230" r="1.6" fill="#fff" opacity=".07"/><circle cx="630" cy="270" r="1.6" fill="#fff" opacity=".07"/><circle cx="630" cy="310" r="1.6" fill="#fff" opacity=".07"/><circle cx="630" cy="350" r="1.6" fill="#fff" opacity=".07"/><circle cx="630" cy="390" r="1.6" fill="#fff" opacity=".07"/><circle cx="630" cy="430" r="1.6" fill="#fff" opacity=".07"/><circle cx="630" cy="470" r="1.6" fill="#fff" opacity=".07"/><circle cx="630" cy="510" r="1.6" fill="#fff" opacity=".07"/><circle cx="630" cy="550" r="1.6" fill="#fff" opacity=".07"/><circle cx="630" cy="590" r="1.6" fill="#fff" opacity=".07"/><circle cx="670" cy="30" r="1.6" fill="#fff" opacity=".07"/><circle cx="670" cy="70" r="1.6" fill="#fff" opacity=".07"/><circle cx="670" cy="110" r="1.6" fill="#fff" opacity=".07"/><circle cx="670" cy="150" r="1.6" fill="#fff" opacity=".07"/><circle cx="670" cy="190" r="1.6" fill="#fff" opacity=".07"/><circle cx="670" cy="230" r="1.6" fill="#fff" opacity=".07"/><circle cx="670" cy="270" r="1.6" fill="#fff" opacity=".07"/><circle cx="670" cy="310" r="1.6" fill="#fff" opacity=".07"/><circle cx="670" cy="350" r="1.6" fill="#fff" opacity=".07"/><circle cx="670" cy="390" r="1.6" fill="#fff" opacity=".07"/><circle cx="670" cy="430" r="1.6" fill="#fff" opacity=".07"/><circle cx="670" cy="470" r="1.6" fill="#fff" opacity=".07"/><circle cx="670" cy="510" r="1.6" fill="#fff" opacity=".07"/><circle cx="670" cy="550" r="1.6" fill="#fff" opacity=".07"/><circle cx="670" cy="590" r="1.6" fill="#fff" opacity=".07"/><circle cx="710" cy="30" r="1.6" fill="#fff" opacity=".07"/><circle cx="710" cy="70" r="1.6" fill="#fff" opacity=".07"/><circle cx="710" cy="110" r="1.6" fill="#fff" opacity=".07"/><circle cx="710" cy="150" r="1.6" fill="#fff" opacity=".07"/><circle cx="710" cy="190" r="1.6" fill="#fff" opacity=".07"/><circle cx="710" cy="230" r="1.6" fill="#fff" opacity=".07"/><circle cx="710" cy="270" r="1.6" fill="#fff" opacity=".07"/><circle cx="710" cy="310" r="1.6" fill="#fff" opacity=".07"/><circle cx="710" cy="350" r="1.6" fill="#fff" opacity=".07"/><circle cx="710" cy="390" r="1.6" fill="#fff" opacity=".07"/><circle cx="710" cy="430" r="1.6" fill="#fff" opacity=".07"/><circle cx="710" cy="470" r="1.6" fill="#fff" opacity=".07"/><circle cx="710" cy="510" r="1.6" fill="#fff" opacity=".07"/><circle cx="710" cy="550" r="1.6" fill="#fff" opacity=".07"/><circle cx="710" cy="590" r="1.6" fill="#fff" opacity=".07"/><circle cx="750" cy="30" r="1.6" fill="#fff" opacity=".07"/><circle cx="750" cy="70" r="1.6" fill="#fff" opacity=".07"/><circle cx="750" cy="110" r="1.6" fill="#fff" opacity=".07"/><circle cx="750" cy="150" r="1.6" fill="#fff" opacity=".07"/><circle cx="750" cy="190" r="1.6" fill="#fff" opacity=".07"/><circle cx="750" cy="230" r="1.6" fill="#fff" opacity=".07"/><circle cx="750" cy="270" r="1.6" fill="#fff" opacity=".07"/><circle cx="750" cy="310" r="1.6" fill="#fff" opacity=".07"/><circle cx="750" cy="350" r="1.6" fill="#fff" opacity=".07"/><circle cx="750" cy="390" r="1.6" fill="#fff" opacity=".07"/><circle cx="750" cy="430" r="1.6" fill="#fff" opacity=".07"/><circle cx="750" cy="470" r="1.6" fill="#fff" opacity=".07"/><circle cx="750" cy="510" r="1.6" fill="#fff" opacity=".07"/><circle cx="750" cy="550" r="1.6" fill="#fff" opacity=".07"/><circle cx="750" cy="590" r="1.6" fill="#fff" opacity=".07"/><circle cx="790" cy="30" r="1.6" fill="#fff" opacity=".07"/><circle cx="790" cy="70" r="1.6" fill="#fff" opacity=".07"/><circle cx="790" cy="110" r="1.6" fill="#fff" opacity=".07"/><circle cx="790" cy="150" r="1.6" fill="#fff" opacity=".07"/><circle cx="790" cy="190" r="1.6" fill="#fff" opacity=".07"/><circle cx="790" cy="230" r="1.6" fill="#fff" opacity=".07"/><circle cx="790" cy="270" r="1.6" fill="#fff" opacity=".07"/><circle cx="790" cy="310" r="1.6" fill="#fff" opacity=".07"/><circle cx="790" cy="350" r="1.6" fill="#fff" opacity=".07"/><circle cx="790" cy="390" r="1.6" fill="#fff" opacity=".07"/><circle cx="790" cy="430" r="1.6" fill="#fff" opacity=".07"/><circle cx="790" cy="470" r="1.6" fill="#fff" opacity=".07"/><circle cx="790" cy="510" r="1.6" fill="#fff" opacity=".07"/><circle cx="790" cy="550" r="1.6" fill="#fff" opacity=".07"/><circle cx="790" cy="590" r="1.6" fill="#fff" opacity=".07"/><circle cx="400" cy="290" r="270" fill="url(#halo)"/><ellipse cx="400" cy="508" rx="250" ry="26" fill="#000" opacity=".5" filter="url(#blur)"/><rect x="380" y="330" width="40" height="170" rx="8" fill="#495057"/><rect x="360" y="300" width="80" height="44" rx="12" fill="#212529"/><rect x="345" y="478" width="110" height="30" rx="10" fill="#343a40"/><rect x="410" y="290" width="86" height="22" rx="8" fill="#39D353" transform="rotate(-20 410 300)"/><circle cx="470" cy="300" r="7.0" fill="#74c0fc" opacity="0.95"/><circle cx="465" cy="280" r="6.6" fill="#74c0fc" opacity="0.89"/><circle cx="460" cy="264" r="6.2" fill="#74c0fc" opacity="0.82"/><circle cx="455" cy="252" r="5.9" fill="#74c0fc" opacity="0.76"/><circle cx="450" cy="244" r="5.5" fill="#74c0fc" opacity="0.70"/><circle cx="445" cy="239" r="5.1" fill="#74c0fc" opacity="0.64"/><circle cx="440" cy="238" r="4.8" fill="#74c0fc" opacity="0.57"/><circle cx="435" cy="241" r="4.4" fill="#74c0fc" opacity="0.51"/><circle cx="430" cy="247" r="4.0" fill="#74c0fc" opacity="0.45"/><circle cx="470" cy="300" r="7.0" fill="#74c0fc" opacity="0.95"/><circle cx="476" cy="272" r="6.6" fill="#74c0fc" opacity="0.89"/><circle cx="481" cy="247" r="6.2" fill="#74c0fc" opacity="0.82"/><circle cx="487" cy="226" r="5.9" fill="#74c0fc" opacity="0.76"/><circle cx="493" cy="209" r="5.5" fill="#74c0fc" opacity="0.70"/><circle cx="499" cy="196" r="5.1" fill="#74c0fc" opacity="0.64"/><circle cx="504" cy="186" r="4.8" fill="#74c0fc" opacity="0.57"/><circle cx="510" cy="180" r="4.4" fill="#74c0fc" opacity="0.51"/><circle cx="516" cy="178" r="4.0" fill="#74c0fc" opacity="0.45"/><circle cx="470" cy="300" r="7.0" fill="#74c0fc" opacity="0.95"/><circle cx="487" cy="266" r="6.6" fill="#74c0fc" opacity="0.89"/><circle cx="504" cy="235" r="6.2" fill="#74c0fc" opacity="0.82"/><circle cx="521" cy="208" r="5.9" fill="#74c0fc" opacity="0.76"/><circle cx="538" cy="185" r="5.5" fill="#74c0fc" opacity="0.70"/><circle cx="555" cy="166" r="5.1" fill="#74c0fc" opacity="0.64"/><circle cx="572" cy="150" r="4.8" fill="#74c0fc" opacity="0.57"/><circle cx="589" cy="138" r="4.4" fill="#74c0fc" opacity="0.51"/><circle cx="606" cy="130" r="4.0" fill="#74c0fc" opacity="0.45"/><circle cx="470" cy="300" r="7.0" fill="#74c0fc" opacity="0.95"/><circle cx="498" cy="265" r="6.6" fill="#74c0fc" opacity="0.89"/><circle cx="526" cy="233" r="6.2" fill="#74c0fc" opacity="0.82"/><circle cx="554" cy="206" r="5.9" fill="#74c0fc" opacity="0.76"/><circle cx="582" cy="182" r="5.5" fill="#74c0fc" opacity="0.70"/><circle cx="610" cy="162" r="5.1" fill="#74c0fc" opacity="0.64"/><circle cx="638" cy="145" r="4.8" fill="#74c0fc" opacity="0.57"/><circle cx="666" cy="133" r="4.4" fill="#74c0fc" opacity="0.51"/><circle cx="693" cy="124" r="4.0" fill="#74c0fc" opacity="0.45"/><circle cx="470" cy="300" r="7.0" fill="#74c0fc" opacity="0.95"/><circle cx="503" cy="270" r="6.6" fill="#74c0fc" opacity="0.89"/><circle cx="535" cy="243" r="6.2" fill="#74c0fc" opacity="0.82"/><circle cx="568" cy="220" r="5.9" fill="#74c0fc" opacity="0.76"/><circle cx="600" cy="201" r="5.5" fill="#74c0fc" opacity="0.70"/><circle cx="633" cy="186" r="5.1" fill="#74c0fc" opacity="0.64"/><circle cx="665" cy="175" r="4.8" fill="#74c0fc" opacity="0.57"/><circle cx="698" cy="167" r="4.4" fill="#74c0fc" opacity="0.51"/><circle cx="730" cy="163" r="4.0" fill="#74c0fc" opacity="0.45"/><circle cx="470" cy="300" r="7.0" fill="#74c0fc" opacity="0.95"/><circle cx="503" cy="278" r="6.6" fill="#74c0fc" opacity="0.89"/><circle cx="536" cy="259" r="6.2" fill="#74c0fc" opacity="0.82"/><circle cx="569" cy="244" r="5.9" fill="#74c0fc" opacity="0.76"/><circle cx="603" cy="233" r="5.5" fill="#74c0fc" opacity="0.70"/><circle cx="636" cy="225" r="5.1" fill="#74c0fc" opacity="0.64"/><circle cx="669" cy="221" r="4.8" fill="#74c0fc" opacity="0.57"/><circle cx="702" cy="221" r="4.4" fill="#74c0fc" opacity="0.51"/><circle cx="735" cy="225" r="4.0" fill="#74c0fc" opacity="0.45"/></svg>